<svg width="546" height="828" viewBox="0 0 546 828" fill="none" xmlns="http://www.w3.org/2000/svg">
<g opacity="0.25">
<g opacity="0.01">
<rect x="140.598" y="335.382" width="237.799" height="205.746" transform="rotate(-89.9542 140.598 335.382)" stroke="white" stroke-width="3"/>
</g>
<g opacity="0.0204082">
<rect x="139.748" y="346.6" width="236.277" height="204.878" transform="rotate(-84.9542 139.748 346.6)" stroke="white" stroke-width="3"/>
</g>
<g opacity="0.0408163">
<rect x="137.996" y="357.664" width="234.755" height="204.01" transform="rotate(-79.9542 137.996 357.664)" stroke="white" stroke-width="3"/>
</g>
<g opacity="0.0612245">
<rect x="135.362" y="368.495" width="233.233" height="203.142" transform="rotate(-74.9542 135.362 368.495)" stroke="white" stroke-width="3"/>
</g>
<g opacity="0.0816327">
<rect x="131.872" y="379.019" width="231.711" height="202.274" transform="rotate(-69.9542 131.872 379.019)" stroke="white" stroke-width="3"/>
</g>
<g opacity="0.102041">
<rect x="127.562" y="389.164" width="230.189" height="201.406" transform="rotate(-64.9542 127.562 389.164)" stroke="white" stroke-width="3"/>
</g>
<g opacity="0.122449">
<rect x="122.47" y="398.861" width="228.667" height="200.538" transform="rotate(-59.9542 122.47 398.861)" stroke="white" stroke-width="3"/>
</g>
<g opacity="0.142857">
<rect x="116.642" y="408.046" width="227.144" height="199.67" transform="rotate(-54.9542 116.642 408.046)" stroke="white" stroke-width="3"/>
</g>
<g opacity="0.163265">
<rect x="110.129" y="416.659" width="225.622" height="198.802" transform="rotate(-49.9542 110.129 416.659)" stroke="white" stroke-width="3"/>
</g>
<g opacity="0.183673">
<rect x="102.984" y="424.644" width="224.1" height="197.934" transform="rotate(-44.9542 102.984 424.644)" stroke="white" stroke-width="3"/>
</g>
<g opacity="0.204082">
<rect x="95.2693" y="431.952" width="222.578" height="197.066" transform="rotate(-39.9542 95.2693 431.952)" stroke="white" stroke-width="3"/>
</g>
<g opacity="0.22449">
<rect x="87.0473" y="438.538" width="221.056" height="196.198" transform="rotate(-34.9542 87.0473 438.538)" stroke="white" stroke-width="3"/>
</g>
<g opacity="0.244898">
<rect x="78.3853" y="444.364" width="219.534" height="195.33" transform="rotate(-29.9542 78.3853 444.364)" stroke="white" stroke-width="3"/>
</g>
<g opacity="0.265306">
<rect x="69.353" y="449.397" width="218.012" height="194.462" transform="rotate(-24.9542 69.353 449.397)" stroke="white" stroke-width="3"/>
</g>
<g opacity="0.285714">
<rect x="60.0225" y="453.613" width="216.49" height="193.594" transform="rotate(-19.9542 60.0225 453.613)" stroke="white" stroke-width="3"/>
</g>
<g opacity="0.306122">
<rect x="50.4676" y="456.991" width="214.967" height="192.726" transform="rotate(-14.9542 50.4676 456.991)" stroke="white" stroke-width="3"/>
</g>
<g opacity="0.326531">
<rect x="40.7628" y="459.519" width="213.445" height="191.858" transform="rotate(-9.95416 40.7628 459.519)" stroke="white" stroke-width="3"/>
</g>
<g opacity="0.346939">
<rect x="30.9839" y="461.191" width="211.923" height="190.99" transform="rotate(-4.95416 30.9839 461.191)" stroke="white" stroke-width="3"/>
</g>
<g opacity="0.367347">
<rect x="21.2058" y="462.007" width="210.401" height="190.122" transform="rotate(0.0458436 21.2058 462.007)" stroke="white" stroke-width="3"/>
</g>
<g opacity="0.387755">
<rect x="11.503" y="461.974" width="208.879" height="189.254" transform="rotate(5.04584 11.503 461.974)" stroke="white" stroke-width="3"/>
</g>
<g opacity="0.408163">
<rect x="1.94911" y="461.106" width="207.357" height="188.386" transform="rotate(10.0458 1.94911 461.106)" stroke="white" stroke-width="3"/>
</g>
<g opacity="0.428571">
<rect x="-7.38435" y="459.424" width="205.835" height="187.518" transform="rotate(15.0458 -7.38435 459.424)" stroke="white" stroke-width="3"/>
</g>
<g opacity="0.44898">
<rect x="-16.4283" y="456.951" width="204.313" height="186.651" transform="rotate(20.0458 -16.4283 456.951)" stroke="white" stroke-width="3"/>
</g>
<g opacity="0.469388">
<rect x="-25.1162" y="453.721" width="202.791" height="185.783" transform="rotate(25.0458 -25.1162 453.721)" stroke="white" stroke-width="3"/>
</g>
<g opacity="0.489796">
<rect x="-33.3852" y="449.771" width="201.268" height="184.915" transform="rotate(30.0458 -33.3852 449.771)" stroke="white" stroke-width="3"/>
</g>
<g opacity="0.510204">
<rect x="-41.1755" y="445.144" width="199.746" height="184.047" transform="rotate(35.0458 -41.1755 445.144)" stroke="white" stroke-width="3"/>
</g>
<g opacity="0.530612">
<rect x="-48.4327" y="439.886" width="198.224" height="183.179" transform="rotate(40.0458 -48.4327 439.886)" stroke="white" stroke-width="3"/>
</g>
<g opacity="0.55102">
<rect x="-55.1059" y="434.049" width="196.702" height="182.311" transform="rotate(45.0458 -55.1059 434.049)" stroke="white" stroke-width="3"/>
</g>
<g opacity="0.571429">
<rect x="-61.1495" y="427.69" width="195.18" height="181.443" transform="rotate(50.0458 -61.1495 427.69)" stroke="white" stroke-width="3"/>
</g>
<g opacity="0.591837">
<rect x="-66.5234" y="420.867" width="193.658" height="180.575" transform="rotate(55.0458 -66.5234 420.867)" stroke="white" stroke-width="3"/>
</g>
<g opacity="0.612245">
<rect x="-71.1928" y="413.643" width="192.136" height="179.707" transform="rotate(60.0458 -71.1928 413.643)" stroke="white" stroke-width="3"/>
</g>
<g opacity="0.632653">
<rect x="-75.1286" y="406.082" width="190.614" height="178.839" transform="rotate(65.0458 -75.1286 406.082)" stroke="white" stroke-width="3"/>
</g>
</g>
</svg>
