<svg width="810" height="993" viewBox="0 0 810 993" fill="none" xmlns="http://www.w3.org/2000/svg">
<g opacity="0.2">
<g opacity="0.01">
<path d="M154.587 321.813C184.969 189.604 293.373 102.128 396.369 125.796C499.364 149.465 558.705 275.489 528.323 407.698C497.941 539.907 389.538 627.383 286.542 603.715C183.546 580.046 124.205 454.022 154.587 321.813Z" stroke="white" stroke-width="2"/>
</g>
<g opacity="0.0204082">
<path d="M187.806 290.063C229.33 161.824 344.534 84.7208 444.836 117.199C545.138 149.677 593.283 279.672 551.759 407.911C510.235 536.151 395.031 613.254 294.729 580.776C194.427 548.298 146.282 418.302 187.806 290.063Z" stroke="white" stroke-width="2"/>
</g>
<g opacity="0.0408163">
<path d="M222.921 261.053C275.129 137.713 396.153 71.4982 493.011 112.497C589.87 153.495 626.579 286.475 574.371 409.815C522.164 533.155 401.14 599.369 304.281 558.371C207.423 517.372 170.714 384.392 222.921 261.053Z" stroke="white" stroke-width="2"/>
</g>
<g opacity="0.0612245">
<path d="M259.686 234.924C322.042 117.363 447.868 62.4606 540.563 111.627C633.258 160.794 658.376 295.759 596.021 413.319C533.665 530.88 407.84 585.782 315.144 536.616C222.449 487.449 197.331 352.484 259.686 234.924Z" stroke="white" stroke-width="2"/>
</g>
<g opacity="0.0816327">
<path d="M297.842 211.795C369.738 100.839 499.32 57.577 587.167 114.499C675.014 171.422 688.473 307.369 616.576 418.325C544.68 529.281 415.099 572.543 327.252 515.621C239.405 458.699 225.946 322.751 297.842 211.795Z" stroke="white" stroke-width="2"/>
</g>
<g opacity="0.102041">
<path d="M337.123 191.762C417.887 88.1734 550.156 56.7854 632.51 120.993C714.864 185.201 716.683 321.132 635.919 424.72C555.155 528.309 422.886 559.697 340.532 495.489C258.178 431.282 256.359 295.351 337.123 191.762Z" stroke="white" stroke-width="2"/>
</g>
<g opacity="0.122449">
<path d="M377.256 174.899C466.155 79.3733 600.033 59.9953 676.294 130.966C752.555 201.936 742.836 336.86 653.938 432.386C565.039 527.911 431.161 547.289 354.9 476.319C278.639 405.348 288.358 270.424 377.256 174.899Z" stroke="white" stroke-width="2"/>
</g>
<g opacity="0.142857">
<path d="M417.966 161.253C514.213 74.4156 648.618 67.0866 718.235 144.247C787.852 221.408 766.783 354.354 670.537 441.191C574.29 528.029 439.885 535.358 370.267 458.197C300.65 381.036 321.719 248.091 417.966 161.253Z" stroke="white" stroke-width="2"/>
</g>
<g opacity="0.163265">
<path d="M458.972 150.85C561.735 73.2502 695.59 77.912 758.067 160.647C820.543 243.381 788.392 373.402 685.63 451.002C582.868 528.602 449.012 523.94 386.536 441.205C324.059 358.471 356.21 228.45 458.972 150.85Z" stroke="white" stroke-width="2"/>
</g>
<g opacity="0.183673">
<path d="M499.998 143.691C608.403 75.7991 740.647 92.2983 795.542 179.951C850.437 267.604 807.549 393.783 699.144 461.675C590.74 529.566 458.496 513.067 403.601 425.415C348.706 337.762 391.593 211.582 499.998 143.691Z" stroke="white" stroke-width="2"/>
</g>
<g opacity="0.204082">
<path d="M540.766 139.751C653.909 81.958 783.502 110.048 830.434 201.928C877.367 293.808 824.165 415.27 711.022 473.063C597.879 530.857 468.286 502.767 421.353 410.887C374.421 319.006 427.623 197.545 540.766 139.751Z" stroke="white" stroke-width="2"/>
</g>
<g opacity="0.22449">
<path d="M581.004 138.987C697.955 91.5978 823.889 130.94 862.541 226.329C901.193 321.718 838.168 437.627 721.216 485.016C604.265 532.406 478.331 493.063 439.679 397.674C401.027 302.285 464.052 186.376 581.004 138.987Z" stroke="white" stroke-width="2"/>
</g>
<g opacity="0.244898">
<path d="M620.445 141.328C740.259 104.564 861.563 154.735 891.681 252.89C921.799 351.045 849.51 460.618 729.696 497.381C609.882 534.144 488.578 483.974 458.46 385.819C428.342 287.663 500.632 178.091 620.445 141.328Z" stroke="white" stroke-width="2"/>
</g>
<g opacity="0.265306">
<path d="M658.832 146.682C780.552 120.68 896.304 181.172 917.7 281.334C939.096 381.495 858.163 484.001 736.443 510.002C614.723 536.004 498.971 475.512 477.575 375.351C456.179 275.189 537.112 172.683 658.832 146.682Z" stroke="white" stroke-width="2"/>
</g>
<g opacity="0.285714">
<path d="M695.916 154.937C818.584 139.749 927.913 209.975 940.467 311.372C953.021 412.769 864.121 507.539 741.452 522.726C618.784 537.914 509.455 467.688 496.901 366.291C484.347 264.894 573.247 170.125 695.916 154.937Z" stroke="white" stroke-width="2"/>
</g>
<g opacity="0.306122">
<path d="M731.459 165.96C854.124 161.552 956.219 240.855 959.879 342.71C963.539 444.566 867.399 530.992 744.734 535.4C622.069 539.807 519.974 460.505 516.314 358.649C512.654 256.794 608.794 170.368 731.459 165.96Z" stroke="white" stroke-width="2"/>
</g>
<g opacity="0.326531">
<path d="M765.238 179.599C886.961 185.855 981.077 273.509 975.859 375.046C970.641 476.583 868.034 554.127 746.311 547.871C624.589 541.615 530.472 453.961 535.69 352.424C540.908 250.887 643.515 173.344 765.238 179.599Z" stroke="white" stroke-width="2"/>
</g>
<g opacity="0.346939">
<path d="M797.043 195.684C916.905 212.406 1002.37 307.626 988.357 408.074C974.343 508.522 866.08 576.715 746.219 559.994C626.358 543.272 540.893 448.051 554.906 347.604C568.919 247.156 677.182 178.962 797.043 195.684Z" stroke="white" stroke-width="2"/>
</g>
<g opacity="0.367347">
<path d="M826.683 214.028C943.792 240.94 1020.01 342.888 997.349 441.488C974.69 540.088 861.615 598.537 744.506 571.625C627.397 544.713 551.182 442.765 573.841 344.165C596.499 245.564 709.574 187.116 826.683 214.028Z" stroke="white" stroke-width="2"/>
</g>
<g opacity="0.387755">
<path d="M853.98 234.429C967.479 271.18 1033.93 378.971 1002.84 474.983C971.75 570.995 854.732 619.379 741.233 582.628C627.735 545.877 561.286 438.087 592.375 342.074C623.464 246.062 740.482 197.678 853.98 234.429Z" stroke="white" stroke-width="2"/>
</g>
<g opacity="0.408163">
<path d="M878.779 256.673C987.85 302.841 1044.1 415.55 1004.86 508.257C965.615 600.965 845.542 639.041 736.472 592.873C627.402 546.706 571.154 433.996 610.395 341.289C649.636 248.582 769.709 210.506 878.779 256.673Z" stroke="white" stroke-width="2"/>
</g>
<g opacity="0.428571">
<path d="M900.942 280.533C1004.81 335.628 1050.51 452.302 1003.46 541.015C956.403 629.729 834.176 657.333 730.305 602.238C626.435 547.144 580.735 430.47 627.789 341.756C674.844 253.043 797.071 225.439 900.942 280.533Z" stroke="white" stroke-width="2"/>
</g>
<g opacity="0.44898">
<path d="M920.35 305.772C1018.3 369.242 1053.19 488.904 998.722 572.969C944.251 657.034 820.776 674.078 722.825 610.609C624.874 547.14 589.982 427.478 644.453 343.413C698.925 259.348 822.399 242.303 920.35 305.772Z" stroke="white" stroke-width="2"/>
</g>
<g opacity="0.469388">
<path d="M936.91 332.146C1028.28 403.382 1052.19 525.04 990.756 603.84C929.318 682.641 805.501 689.117 714.134 617.882C622.767 546.647 598.85 424.989 660.288 346.188C721.725 267.388 845.543 260.911 936.91 332.146Z" stroke="white" stroke-width="2"/>
</g>
<g opacity="0.489796">
<path d="M950.545 359.404C1034.73 437.744 1047.59 560.4 979.685 633.364C911.783 706.327 788.521 702.303 704.34 623.963C620.16 545.622 607.299 422.966 675.201 350.003C743.102 277.04 866.365 281.063 950.545 359.404Z" stroke="white" stroke-width="2"/>
</g>
<g opacity="0.510204">
<path d="M961.204 387.29C1037.66 472.029 1039.47 594.687 965.658 661.287C891.842 727.887 770.016 713.507 693.561 628.768C617.106 544.028 615.29 421.37 689.107 354.77C762.924 288.17 884.749 302.55 961.204 387.29Z" stroke="white" stroke-width="2"/>
</g>
<g opacity="0.530612">
<path d="M968.856 415.547C1037.12 505.94 1027.99 627.612 948.846 687.375C869.705 747.138 750.18 722.618 681.92 632.225C613.66 541.831 622.789 420.159 701.931 360.396C781.072 300.634 900.597 325.154 968.856 415.547Z" stroke="white" stroke-width="2"/>
</g>
<g opacity="0.55102">
<path d="M973.494 443.916C1033.16 539.184 1013.27 658.902 929.435 711.407C845.598 763.912 729.208 729.541 669.544 634.273C609.88 539.004 629.766 419.287 713.603 366.781C797.44 314.276 913.829 348.647 973.494 443.916Z" stroke="white" stroke-width="2"/>
</g>
<g opacity="0.571429">
<path d="M975.13 472.141C1025.87 571.479 995.501 688.299 907.629 733.184C819.757 778.069 707.308 734.202 656.566 634.863C605.823 535.525 636.194 418.705 724.066 373.82C811.938 328.935 924.388 372.802 975.13 472.141Z" stroke="white" stroke-width="2"/>
</g>
<g opacity="0.591837">
<path d="M973.801 499.967C1015.37 602.552 974.868 715.561 883.65 752.523C792.431 789.485 684.687 736.545 643.119 633.96C601.551 531.376 642.052 418.366 733.27 381.404C824.488 344.442 932.233 397.382 973.801 499.967Z" stroke="white" stroke-width="2"/>
</g>
<g opacity="0.612245">
<path d="M969.563 527.147C1001.78 632.14 951.582 740.47 857.728 769.268C763.874 798.065 661.557 736.533 629.341 631.54C597.125 526.546 647.322 418.217 741.176 389.419C835.03 360.621 937.347 422.153 969.563 527.147Z" stroke="white" stroke-width="2"/>
</g>
<g opacity="0.632653">
<path d="M962.494 553.438C985.257 659.997 925.871 762.821 830.108 783.277C734.346 803.734 638.131 734.148 615.368 627.589C592.605 521.03 651.991 418.205 747.754 397.749C843.517 377.293 939.732 446.879 962.494 553.438Z" stroke="white" stroke-width="2"/>
</g>
<g opacity="0.653061">
<path d="M952.692 578.607C965.975 685.889 897.978 782.437 801.044 794.438C704.111 806.44 614.62 729.391 601.337 622.109C588.055 514.826 656.052 418.279 752.985 406.277C849.919 394.276 939.41 471.324 952.692 578.607Z" stroke="white" stroke-width="2"/>
</g>
<g opacity="0.673469">
<path d="M940.269 602.431C944.12 709.602 868.153 799.159 770.791 802.658C673.43 806.156 591.23 722.283 587.379 615.112C583.528 507.941 659.495 418.384 756.857 414.885C854.219 411.386 936.418 495.26 940.269 602.431Z" stroke="white" stroke-width="2"/>
</g>
<g opacity="0.693878">
<path d="M925.368 624.699C919.908 730.937 836.671 812.855 739.623 807.868C642.576 802.88 568.175 712.86 573.635 606.622C579.094 500.384 662.332 418.466 759.38 423.454C856.427 428.441 930.828 518.461 925.368 624.699Z" stroke="white" stroke-width="2"/>
</g>
<g opacity="0.714286">
<path d="M908.136 645.212C893.557 749.717 803.8 823.415 707.804 810.023C611.807 796.63 545.649 701.18 560.228 596.676C574.807 492.172 664.564 418.473 760.56 431.865C856.557 445.258 922.716 540.708 908.136 645.212Z" stroke="white" stroke-width="2"/>
</g>
<g opacity="0.734694">
<path d="M888.741 663.787C865.302 765.783 769.824 830.754 675.602 809.102C581.381 787.45 523.844 687.315 547.283 585.319C570.722 483.323 666.201 418.352 760.422 440.004C854.643 461.656 912.18 561.791 888.741 663.787Z" stroke="white" stroke-width="2"/>
</g>
<g opacity="0.755102">
<path d="M867.363 680.255C835.389 779 735.025 834.812 643.286 805.107C551.547 775.402 502.945 671.354 534.919 572.609C566.893 473.864 667.258 418.052 758.996 447.757C850.735 477.462 899.337 581.51 867.363 680.255Z" stroke="white" stroke-width="2"/>
</g>
<g opacity="0.77551">
<path d="M844.197 694.465C804.075 789.254 699.691 835.555 611.119 798.064C522.548 760.573 483.125 653.402 523.247 558.613C563.37 463.825 667.754 417.524 756.325 455.015C844.897 492.505 884.32 599.677 844.197 694.465Z" stroke="white" stroke-width="2"/>
</g>
<g opacity="0.795918">
<path d="M819.449 706.284C771.622 796.454 664.108 832.971 579.361 788.02C494.614 743.069 464.546 633.577 512.373 543.407C560.2 453.238 667.713 416.721 752.46 461.672C837.207 506.622 867.276 616.114 819.449 706.284Z" stroke="white" stroke-width="2"/>
</g>
<g opacity="0.816327">
<path d="M793.333 715.596C738.298 800.531 628.563 827.075 548.265 775.044C467.967 723.014 447.358 612.011 502.393 527.076C557.429 442.141 667.164 415.597 747.462 467.627C827.76 519.658 848.368 630.661 793.333 715.596Z" stroke="white" stroke-width="2"/>
</g>
<g opacity="0.836735">
<path d="M766.072 722.305C704.374 801.44 593.333 817.906 518.072 759.228C442.81 700.55 431.698 588.846 493.396 509.711C555.094 430.576 666.135 414.11 741.397 472.788C816.658 531.466 827.771 643.17 766.072 722.305Z" stroke="white" stroke-width="2"/>
</g>
<g opacity="0.857143">
<path d="M737.897 726.336C670.124 799.161 558.694 805.527 489.015 740.682C419.336 675.837 417.687 564.238 485.46 491.412C553.234 418.587 664.663 412.221 734.342 477.066C804.021 541.911 805.67 653.51 737.897 726.336Z" stroke="white" stroke-width="2"/>
</g>
<g opacity="0.877551">
<path d="M709.04 727.631C635.818 793.695 524.911 790.02 461.315 719.533C397.719 649.047 405.434 538.347 478.656 472.283C551.878 406.219 662.786 409.894 726.381 480.38C789.977 550.867 782.263 661.567 709.04 727.631Z" stroke="white" stroke-width="2"/>
</g>
<g opacity="0.897959">
<path d="M679.74 726.155C601.727 785.066 492.239 771.493 435.178 695.931C378.118 620.368 395.029 511.345 473.042 452.434C551.055 393.523 660.544 407.096 717.604 482.659C774.665 558.222 757.754 667.244 679.74 726.155Z" stroke="white" stroke-width="2"/>
</g>
<g opacity="0.918367">
<path d="M650.234 721.893C568.114 773.323 460.921 750.073 410.795 670.035C360.669 589.997 386.547 483.408 468.667 431.978C550.787 380.548 657.98 403.799 708.106 483.836C758.232 563.874 732.354 670.463 650.234 721.893Z" stroke="white" stroke-width="2"/>
</g>
<g opacity="0.938776">
<path d="M620.759 714.85C535.237 758.535 431.188 725.906 388.341 642.025C345.495 558.144 380.047 454.718 465.569 411.033C551.091 367.348 655.14 399.977 697.987 483.858C740.833 567.739 706.281 671.165 620.759 714.85Z" stroke="white" stroke-width="2"/>
</g>
<g opacity="0.959184">
<path d="M591.55 705.05C503.345 740.791 403.254 699.156 367.974 612.09C332.695 525.024 375.571 425.457 463.776 389.716C551.981 353.975 652.072 395.61 687.352 482.676C722.631 569.743 679.755 669.309 591.55 705.05Z" stroke="white" stroke-width="2"/>
</g>
<g opacity="0.979592">
<path d="M562.839 692.538C472.679 720.203 377.317 670.003 349.833 580.43C322.349 490.858 373.144 395.812 463.303 368.147C553.463 340.483 648.825 390.683 676.309 480.255C703.793 569.827 652.998 664.874 562.839 692.538Z" stroke="white" stroke-width="2"/>
</g>
<circle cx="499.504" cy="511.912" r="169.199" transform="rotate(77.942 499.504 511.912)" stroke="white" stroke-width="2"/>
</g>
</svg>
