<svg width="149" height="56" viewBox="0 0 149 56" fill="none" xmlns="http://www.w3.org/2000/svg">
<g clip-path="url(#clip0)">
<path d="M43.1443 20.4655C43.1439 20.2337 43.1917 20.0044 43.2847 19.7921C43.3766 19.5821 43.5109 19.3933 43.679 19.2377C43.8382 19.0749 44.0298 18.9473 44.2413 18.8632C44.4548 18.7783 44.6839 18.7398 44.9134 18.7501C45.3546 18.7679 45.8033 18.9927 46.1211 19.2594L44.9028 40.8097L44.9127 41.0595C44.9116 41.0595 44.9106 41.0596 44.9095 41.0596C44.6799 41.0682 44.4512 41.0261 44.2396 40.9362L44.3374 40.7061M43.1443 20.4655V20.4652H43.3943L43.1443 20.4657C43.1443 20.4656 43.1443 20.4655 43.1443 20.4655ZM43.1443 20.4655V39.291M43.1443 39.291C43.1373 39.52 43.1797 39.748 43.2687 39.9591C43.3574 40.1696 43.4904 40.3585 43.6586 40.5128M43.1443 39.291C43.1444 39.2895 43.1444 39.288 43.1445 39.2866L43.3943 39.295M43.1443 39.291V39.295H43.3943M43.6586 40.5128L43.6881 40.5424M43.6586 40.5128L43.6544 40.5086L43.8316 40.3322M43.6586 40.5128C43.6601 40.5142 43.6617 40.5157 43.6633 40.5171L43.8316 40.3322M43.6881 40.5424C43.8411 40.7123 44.0293 40.8468 44.2396 40.9362L44.3374 40.7061M43.6881 40.5424C43.6865 40.5406 43.6849 40.5388 43.6833 40.5371L43.8698 40.3706M43.6881 40.5424L43.6927 40.547L43.8698 40.3706M44.3374 40.7061C44.1589 40.6302 43.9992 40.5157 43.8698 40.3706M44.3374 40.7061L43.8698 40.3706M43.8698 40.3706L43.8316 40.3322M43.8698 40.3706L43.8316 40.3322M43.8316 40.3322C43.688 40.2016 43.5746 40.0411 43.4991 39.862C43.4236 39.6829 43.3878 39.4894 43.3943 39.295M43.8316 40.3322L43.3943 39.295M46.362 39.295H46.612V39.2927C46.612 39.2919 46.612 39.2911 46.6119 39.2903L46.362 39.295ZM45.5705 9.5767L45.4644 9.80306L45.5705 9.5767C45.356 9.47613 45.1233 9.42062 44.8866 9.41363C44.6499 9.40663 44.4143 9.44829 44.1943 9.53603C43.9742 9.62376 43.7745 9.7557 43.6072 9.92369C43.4399 10.0917 43.3086 10.2922 43.2214 10.5128C43.1341 10.7335 43.0927 10.9696 43.0997 11.2069C43.1066 11.4441 43.1618 11.6775 43.2618 11.8926C43.3608 12.1054 43.5016 12.296 43.6758 12.4528C43.8359 12.6131 44.0273 12.7385 44.2381 12.8212C44.448 12.9036 44.6726 12.9417 44.8978 12.9332C45.1226 12.9408 45.3466 12.9022 45.5561 12.82C45.7688 12.7364 45.962 12.6096 46.1234 12.4475C46.2848 12.2854 46.411 12.0916 46.4941 11.8782C46.5759 11.6681 46.6142 11.4436 46.6067 11.2182C46.6151 10.9925 46.5772 10.7673 46.4953 10.5568C46.4131 10.3454 46.2883 10.1533 46.1287 9.99256C45.9725 9.81766 45.7827 9.67618 45.5705 9.5767Z" fill="white" stroke="white" stroke-width="0.5"/>
<path d="M58.026 32.369L57.7592 31.6037H74.6175V31.6037L74.6228 31.6036C75.0819 31.5938 75.5235 31.4253 75.873 31.1266L75.8871 31.1146L75.8992 31.1006C76.1901 30.766 76.3582 30.3417 76.3757 29.8982L76.376 29.8982L76.3759 29.8855C76.3369 26.4263 75.1866 23.7013 72.8071 21.5479C70.7378 19.6577 68.023 18.6399 65.2261 18.706C63.765 18.6953 62.3164 18.9763 60.9644 19.5326C59.6112 20.0894 58.3818 20.9108 57.3478 21.9491C56.3139 22.9874 55.4959 24.2218 54.9416 25.5804C54.3873 26.9387 54.1076 28.394 54.1186 29.8618C54.1189 32.8196 55.2891 35.6564 57.3722 37.7482C59.4555 39.8403 62.2814 41.0158 65.2281 41.0158H65.9277H65.94L65.9523 41.0146L68.1712 40.795L68.1922 40.793L68.2126 40.7874C69.5801 40.4131 70.8891 39.8498 72.102 39.1135L72.1092 39.1091L72.1161 39.1043C72.7325 38.6708 73.0584 38.2544 73.1707 37.8386C73.2842 37.419 73.1657 37.0539 73.0173 36.7606C72.9161 36.5405 72.7705 36.3437 72.5895 36.1827C72.4119 36.0248 72.2042 35.9049 71.979 35.8302C71.7887 35.7389 71.5781 35.6983 71.3674 35.7124C71.1512 35.7269 70.9428 35.7985 70.7631 35.9198C69.7811 36.5538 68.7022 37.0218 67.5694 37.3052L67.0373 37.4014L66.3552 37.4883L66.3551 37.4881L66.3447 37.4899C65.9912 37.5503 65.6321 37.5713 65.274 37.5525L65.274 37.5522L65.2612 37.5522C63.6566 37.5506 62.0935 37.0392 60.7957 36.0911L60.7929 36.0891C59.5035 35.174 58.5351 33.8726 58.0267 32.3711L58.0267 32.3711L58.026 32.369ZM72.5201 27.3598L72.7443 28.0962H57.7226L57.9928 27.3319L57.9933 27.3306C58.5094 25.8444 59.4749 24.5573 60.7547 23.6491L60.7552 23.6488C62.0411 22.7315 63.5713 22.2225 65.148 22.1874C66.7248 22.1523 68.2759 22.5928 69.601 23.452L69.601 23.452L69.604 23.4539C71.0239 24.3456 72.0629 25.736 72.5187 27.3547L72.5186 27.3547L72.5201 27.3598Z" fill="white" stroke="white" stroke-width="0.5"/>
<path d="M95.9142 19.2269L95.9237 19.2351L95.9324 19.2441C96.2509 19.577 96.4286 20.0205 96.4286 20.4817C96.4286 20.9429 96.2509 21.3864 95.9324 21.7192L95.93 21.7217L95.93 21.7217C95.7672 21.8872 95.5724 22.0176 95.3576 22.105C95.1436 22.1921 94.9142 22.2346 94.6833 22.2299C93.6803 22.2296 92.6871 22.4275 91.7601 22.8125C90.8325 23.1978 89.9894 23.7629 89.2792 24.4756C88.5689 25.1883 88.0055 26.0346 87.621 26.9662C87.2366 27.8978 87.0387 28.8963 87.0387 29.9048V39.2785V39.2852L87.0386 39.2852C87.0261 39.7509 86.8485 40.1971 86.5374 40.5432L86.5325 40.5487L86.5324 40.5486C86.377 40.7117 86.1899 40.8412 85.9827 40.9291C85.7769 41.0164 85.5556 41.0609 85.3321 41.0597C85.0986 41.0659 84.8666 41.0204 84.6527 40.9264C84.4415 40.8337 84.2532 40.696 84.1005 40.5231C83.9343 40.3675 83.8016 40.1794 83.7105 39.9704C83.6176 39.7573 83.5702 39.527 83.571 39.2945M95.9142 19.2269L83.821 39.295M95.9142 19.2269C95.5675 18.9306 95.1485 18.7598 94.6859 18.7499C93.2269 18.7189 91.7773 18.9916 90.4284 19.5508C89.0812 20.1093 87.8637 20.9416 86.8523 21.9952M95.9142 19.2269L86.8523 21.9952M83.571 39.2945C83.571 39.2943 83.571 39.2941 83.571 39.2939L83.821 39.295M83.571 39.2945V39.295H83.821M83.571 39.2945V29.9071M83.821 39.295V29.9048M83.571 29.9071C83.571 29.9079 83.5711 29.9086 83.5711 29.9094L83.821 29.9048M83.571 29.9071C83.544 28.4319 83.8218 26.967 84.3869 25.6049C84.9516 24.2437 85.791 23.0146 86.8523 21.9952M83.571 29.9071V29.9048H83.821M83.821 29.9048L86.8523 21.9952" fill="white" stroke="white" stroke-width="0.5"/>
<path d="M104.941 19.2345L104.953 19.2479C105.239 19.578 105.427 20.0059 105.446 20.4548L105.446 20.4652H105.446V39.2897C105.455 39.5171 105.417 39.7439 105.335 39.9559C105.252 40.1678 105.127 40.3604 104.967 40.5215C104.81 40.692 104.619 40.828 104.407 40.9207C104.195 41.0134 103.966 41.0607 103.735 41.0597C103.507 41.0674 103.28 41.025 103.07 40.9353C102.861 40.8459 102.674 40.7117 102.522 40.5422L102.493 40.5133C102.324 40.3596 102.19 40.1707 102.101 39.9597C102.012 39.7482 101.97 39.5197 101.978 39.2902V20.4659V20.4652H102.228L104.941 19.2345ZM104.941 19.2345L104.928 19.2229M104.941 19.2345L104.928 19.2229M104.928 19.2229C104.593 18.9314 104.186 18.7679 103.742 18.7501M104.928 19.2229L103.742 18.7501M103.742 18.7501C103.514 18.7406 103.286 18.7789 103.074 18.8625C102.864 18.9454 102.673 19.0711 102.514 19.2315L103.742 18.7501ZM104.96 9.99011C104.805 9.82144 104.616 9.6866 104.406 9.59404C104.194 9.50054 103.965 9.45224 103.734 9.45224C103.502 9.45224 103.273 9.50054 103.061 9.59404C102.853 9.68598 102.666 9.81964 102.511 9.98673C102.342 10.142 102.207 10.331 102.116 10.5415C102.023 10.7548 101.976 10.9855 101.978 11.2184C101.977 11.4506 102.024 11.6805 102.117 11.8933C102.209 12.1048 102.344 12.2947 102.513 12.4511C102.753 12.6937 103.059 12.8593 103.393 12.9268C103.729 12.9947 104.077 12.96 104.393 12.8272C104.709 12.6945 104.978 12.4697 105.166 12.1822C105.352 11.8967 105.449 11.5623 105.446 11.2215C105.455 10.9937 105.417 10.7665 105.333 10.5545C105.249 10.3423 105.122 10.15 104.96 9.99011Z" fill="white" stroke="white" stroke-width="0.5"/>
<path d="M113.825 55.0701C114.223 55.0558 114.224 55.4058 113.825 55.3939C112.836 55.4433 111.377 55.4927 109.497 55.5421C105.737 55.6354 100.299 55.7232 93.582 55.7946C80.1429 55.9373 61.5828 56.0251 41.0771 56.0251L19.6422 55.9921L14.6098 55.9682C6.55148 55.93 0.0546881 49.3475 0.125702 41.2895C0.18582 37.1404 0.240472 33.5348 0.284195 30.5602C0.327917 27.5856 0.398966 25.2642 0.464549 23.6726C0.530132 22.081 0.595716 21.2414 0.666765 21.2414C0.737813 21.2414 0.803397 22.0865 0.86898 23.6726C0.934563 25.2587 0.994682 27.5911 1.04933 30.5602C1.10399 33.5293 1.14771 37.1459 1.20783 41.2895C1.27899 48.6291 7.2643 54.5295 14.6042 54.4921L19.6422 54.4664L41.0771 54.4335C61.5828 54.4335 80.1429 54.5213 93.582 54.6695C100.299 54.7408 105.737 54.8232 109.497 54.922C111.377 54.9659 112.836 55.0207 113.825 55.0701Z" fill="url(#paint0_linear)"/>
<path d="M35.18 0.982374C34.771 0.989849 34.7712 0.621922 35.18 0.636622C36.1692 0.581741 37.6285 0.532348 39.5031 0.482955C43.2632 0.389657 48.7011 0.301847 55.418 0.230501C68.8571 0.0878099 87.4226 0 107.928 0L129.374 0.0329287L134.401 0.0568063C142.465 0.0951079 148.962 6.6776 148.891 14.7411C148.831 18.8846 148.781 22.4958 148.738 25.4649C148.694 28.434 148.617 30.7664 148.552 32.3525C148.493 33.7724 148.116 33.7733 148.147 32.3525C148.087 30.7664 148.022 28.434 147.967 25.4649C147.912 22.4958 147.869 18.8791 147.809 14.7411C147.748 7.40071 141.753 1.49557 134.412 1.53296L129.374 1.55863L107.928 1.619C87.4226 1.619 68.8571 1.53119 55.418 1.38849C48.7011 1.31715 43.2632 1.22934 39.5031 1.13604C37.6285 1.08665 36.1692 1.03725 35.18 0.982374Z" fill="url(#paint1_linear)"/>
<mask id="path-7-outside-1" maskUnits="userSpaceOnUse" x="12.7922" y="17.9833" width="22" height="24" fill="black">
<rect fill="white" x="12.7922" y="17.9833" width="22" height="24"/>
<path fill-rule="evenodd" clip-rule="evenodd" d="M28.6108 22.9644C27.3972 22.2618 26.0097 21.9204 24.6102 21.9799C22.5288 21.9848 20.5327 22.8106 19.052 24.2794C18.3015 25.0077 17.7073 25.8824 17.306 26.8498C16.9047 27.8172 16.7047 28.8569 16.7183 29.9048C16.7294 31.2628 17.084 32.5828 17.7332 33.7476L15.5564 35.9175C15.1691 35.3406 14.8396 34.7246 14.5739 34.0781C14.0302 32.7559 13.7648 31.335 13.7944 29.9048C13.7828 28.4715 14.0546 27.0501 14.594 25.7231C15.1333 24.396 15.9296 23.1896 16.9366 22.1738C17.9436 21.158 19.1414 20.3529 20.4605 19.8053C21.7795 19.2576 23.1937 18.9783 24.6211 18.9834C26.5434 18.9788 28.4313 19.4945 30.0864 20.4762C31.7456 21.3976 33.1174 22.7637 34.0487 24.4221L34.1744 24.5813C34.1744 24.5817 34.175 24.5829 34.1761 24.5851C34.1908 24.6159 34.2968 24.8375 34.1744 25.5801C34.048 25.9488 33.8016 26.264 33.4749 26.4747C33.3096 26.5667 33.1273 26.6235 32.9392 26.6414C32.7511 26.6594 32.5613 26.6381 32.3818 26.579H32.3162C32.1375 26.541 31.9689 26.4651 31.8218 26.3562C31.6747 26.2473 31.5526 26.1081 31.4636 25.9478C30.8138 24.7017 29.8243 23.667 28.6108 22.9644ZM18.914 39.2003C19.3997 39.5083 19.9114 39.776 20.444 39.9999C21.7608 40.5533 23.1774 40.8272 24.6047 40.8042C26.4325 40.8294 28.2353 40.3754 29.835 39.487C31.4109 38.647 32.7424 37.4102 33.6989 35.8978C34.0542 35.0307 33.9777 34.7618 33.9777 34.7618V34.6904C33.9453 34.5001 33.8743 34.3186 33.7689 34.1572C33.6636 33.9957 33.5263 33.8578 33.3656 33.7519C33.2074 33.6438 33.0277 33.5717 32.8389 33.5404C32.6501 33.5091 32.4569 33.5195 32.2725 33.5708C32.0741 33.6007 31.8839 33.6711 31.7138 33.7778C31.5436 33.8845 31.3971 34.0251 31.2833 34.191C30.5965 35.3419 29.6154 36.2873 28.442 36.929C27.2686 37.5708 25.9456 37.8855 24.6102 37.8406C23.3883 37.8288 22.1977 37.5355 21.1244 36.997L18.914 39.2003Z"/>
</mask>
<path fill-rule="evenodd" clip-rule="evenodd" d="M28.6108 22.9644C27.3972 22.2618 26.0097 21.9204 24.6102 21.9799C22.5288 21.9848 20.5327 22.8106 19.052 24.2794C18.3015 25.0077 17.7073 25.8824 17.306 26.8498C16.9047 27.8172 16.7047 28.8569 16.7183 29.9048C16.7294 31.2628 17.084 32.5828 17.7332 33.7476L15.5564 35.9175C15.1691 35.3406 14.8396 34.7246 14.5739 34.0781C14.0302 32.7559 13.7648 31.335 13.7944 29.9048C13.7828 28.4715 14.0546 27.0501 14.594 25.7231C15.1333 24.396 15.9296 23.1896 16.9366 22.1738C17.9436 21.158 19.1414 20.3529 20.4605 19.8053C21.7795 19.2576 23.1937 18.9783 24.6211 18.9834C26.5434 18.9788 28.4313 19.4945 30.0864 20.4762C31.7456 21.3976 33.1174 22.7637 34.0487 24.4221L34.1744 24.5813C34.1744 24.5817 34.175 24.5829 34.1761 24.5851C34.1908 24.6159 34.2968 24.8375 34.1744 25.5801C34.048 25.9488 33.8016 26.264 33.4749 26.4747C33.3096 26.5667 33.1273 26.6235 32.9392 26.6414C32.7511 26.6594 32.5613 26.6381 32.3818 26.579H32.3162C32.1375 26.541 31.9689 26.4651 31.8218 26.3562C31.6747 26.2473 31.5526 26.1081 31.4636 25.9478C30.8138 24.7017 29.8243 23.667 28.6108 22.9644ZM18.914 39.2003C19.3997 39.5083 19.9114 39.776 20.444 39.9999C21.7608 40.5533 23.1774 40.8272 24.6047 40.8042C26.4325 40.8294 28.2353 40.3754 29.835 39.487C31.4109 38.647 32.7424 37.4102 33.6989 35.8978C34.0542 35.0307 33.9777 34.7618 33.9777 34.7618V34.6904C33.9453 34.5001 33.8743 34.3186 33.7689 34.1572C33.6636 33.9957 33.5263 33.8578 33.3656 33.7519C33.2074 33.6438 33.0277 33.5717 32.8389 33.5404C32.6501 33.5091 32.4569 33.5195 32.2725 33.5708C32.0741 33.6007 31.8839 33.6711 31.7138 33.7778C31.5436 33.8845 31.3971 34.0251 31.2833 34.191C30.5965 35.3419 29.6154 36.2873 28.442 36.929C27.2686 37.5708 25.9456 37.8855 24.6102 37.8406C23.3883 37.8288 22.1977 37.5355 21.1244 36.997L18.914 39.2003Z" fill="white"/>
<path d="M24.6102 21.9799L24.6114 22.4799L24.6214 22.4799L24.6314 22.4795L24.6102 21.9799ZM28.6108 22.9644L28.8613 22.5317L28.6108 22.9644ZM19.052 24.2794L19.4002 24.6383L19.4041 24.6344L19.052 24.2794ZM17.306 26.8498L17.7679 27.0414L17.306 26.8498ZM16.7183 29.9048L17.2183 29.9007L17.2183 29.8983L16.7183 29.9048ZM17.7332 33.7476L18.0862 34.1017L18.3541 33.8346L18.1699 33.5042L17.7332 33.7476ZM15.5564 35.9175L15.1412 36.1961L15.4795 36.7001L15.9093 36.2716L15.5564 35.9175ZM14.5739 34.0781L14.1114 34.2682H14.1114L14.5739 34.0781ZM13.7944 29.9048L14.2943 29.9151L14.2944 29.9079L14.2944 29.9007L13.7944 29.9048ZM14.594 25.7231L14.1308 25.5348V25.5348L14.594 25.7231ZM16.9366 22.1738L16.5815 21.8218V21.8218L16.9366 22.1738ZM20.4605 19.8053L20.6522 20.2671L20.4605 19.8053ZM24.6211 18.9834L24.6193 19.4834L24.6223 19.4834L24.6211 18.9834ZM30.0864 20.4762L29.8313 20.9062L29.8374 20.9098L29.8436 20.9133L30.0864 20.4762ZM34.0487 24.4221L33.6128 24.667L33.632 24.7012L33.6563 24.732L34.0487 24.4221ZM34.1744 24.5813H34.6744V24.4077L34.5668 24.2714L34.1744 24.5813ZM34.1761 24.5851L34.6271 24.3693L34.6271 24.3692L34.1761 24.5851ZM34.1744 25.5801L34.6474 25.7423L34.661 25.7027L34.6678 25.6614L34.1744 25.5801ZM33.4749 26.4747L33.7182 26.9115L33.7323 26.9036L33.7459 26.8949L33.4749 26.4747ZM32.9392 26.6414L32.9867 27.1392V27.1392L32.9392 26.6414ZM32.3818 26.579L32.5383 26.1041L32.462 26.079H32.3818V26.579ZM32.3162 26.579L32.2124 27.0681L32.2638 27.079H32.3162V26.579ZM31.8218 26.3562L32.1193 25.9543V25.9543L31.8218 26.3562ZM31.4636 25.9478L31.0202 26.1791L31.0265 26.1905L31.4636 25.9478ZM18.914 39.2003L18.5611 38.8462L18.1182 39.2876L18.6463 39.6225L18.914 39.2003ZM20.444 39.9999L20.6377 39.5389H20.6377L20.444 39.9999ZM24.6047 40.8042L24.6116 40.3042L24.6041 40.3041L24.5966 40.3042L24.6047 40.8042ZM29.835 39.487L29.5998 39.0457L29.5922 39.0499L29.835 39.487ZM33.6989 35.8978L34.1215 36.1651L34.145 36.128L34.1616 36.0873L33.6989 35.8978ZM33.9777 34.7618H33.4777V34.8315L33.4968 34.8986L33.9777 34.7618ZM33.9777 34.6904H34.4777V34.6482L34.4706 34.6066L33.9777 34.6904ZM33.3656 33.7519L33.0834 34.1648L33.0906 34.1696L33.3656 33.7519ZM32.2725 33.5708L32.3469 34.0653L32.3771 34.0607L32.4066 34.0525L32.2725 33.5708ZM31.2833 34.191L30.871 33.9081L30.862 33.9212L30.8539 33.9348L31.2833 34.191ZM28.442 36.929L28.2021 36.4903H28.2021L28.442 36.929ZM24.6102 37.8406L24.627 37.3407L24.615 37.3406L24.6102 37.8406ZM21.1244 36.997L21.3487 36.5501L21.0266 36.3885L20.7715 36.6429L21.1244 36.997ZM24.6314 22.4795C25.9357 22.424 27.229 22.7422 28.3602 23.3971L28.8613 22.5317C27.5655 21.7815 26.0837 21.4168 24.5889 21.4804L24.6314 22.4795ZM19.4041 24.6344C20.7917 23.258 22.6618 22.4845 24.6114 22.4799L24.609 21.4799C22.3958 21.4851 20.2737 22.3633 18.6999 23.9245L19.4041 24.6344ZM17.7679 27.0414C18.1431 26.1368 18.6987 25.319 19.4002 24.6383L18.7038 23.9206C17.9044 24.6964 17.2716 25.628 16.8442 26.6582L17.7679 27.0414ZM17.2183 29.8983C17.2055 28.9183 17.3926 27.946 17.7679 27.0414L16.8442 26.6582C16.4168 27.6884 16.2038 28.7955 16.2183 29.9113L17.2183 29.8983ZM18.1699 33.5042C17.5612 32.412 17.2287 31.1742 17.2183 29.9007L16.2183 29.9088C16.2301 31.3513 16.6067 32.7536 17.2965 33.991L18.1699 33.5042ZM15.9093 36.2716L18.0862 34.1017L17.3802 33.3935L15.2034 35.5634L15.9093 36.2716ZM14.1114 34.2682C14.39 34.9458 14.7353 35.5915 15.1412 36.1961L15.9715 35.6388C15.6029 35.0897 15.2893 34.5033 15.0363 33.888L14.1114 34.2682ZM13.2945 29.8944C13.2635 31.3933 13.5417 32.8824 14.1114 34.2682L15.0363 33.888C14.5188 32.6293 14.2662 31.2767 14.2943 29.9151L13.2945 29.8944ZM14.1308 25.5348C13.5665 26.9229 13.2823 28.4097 13.2944 29.9088L14.2944 29.9007C14.2833 28.5333 14.5426 27.1773 15.0572 25.9113L14.1308 25.5348ZM16.5815 21.8218C15.5279 22.8846 14.695 24.1466 14.1308 25.5348L15.0572 25.9113C15.5717 24.6454 16.3313 23.4946 17.2917 22.5258L16.5815 21.8218ZM20.2687 19.3435C18.8884 19.9166 17.6351 20.759 16.5815 21.8218L17.2917 22.5258C18.2522 21.557 19.3944 20.7893 20.6522 20.2671L20.2687 19.3435ZM24.6229 18.4834C23.1291 18.478 21.6491 18.7704 20.2687 19.3435L20.6522 20.2671C21.91 19.7449 23.2584 19.4785 24.6193 19.4834L24.6229 18.4834ZM30.3415 20.0461C28.6089 19.0185 26.6324 18.4786 24.6199 18.4834L24.6223 19.4834C26.4543 19.479 28.2537 19.9704 29.8313 20.9062L30.3415 20.0461ZM34.4847 24.1773C33.5081 22.4383 32.0695 21.0056 30.3291 20.0391L29.8436 20.9133C31.4217 21.7897 32.7266 23.0891 33.6128 24.667L34.4847 24.1773ZM34.5668 24.2714L34.4411 24.1122L33.6563 24.732L33.782 24.8912L34.5668 24.2714ZM34.6271 24.3692C34.6251 24.3652 34.6285 24.3722 34.6319 24.3798C34.6335 24.3834 34.6394 24.3967 34.6457 24.4143C34.6488 24.4232 34.6545 24.4398 34.6598 24.4612C34.6639 24.478 34.6744 24.5228 34.6744 24.5813H33.6744C33.6744 24.6399 33.6849 24.6848 33.6891 24.7018C33.6945 24.7233 33.7001 24.74 33.7034 24.7492C33.7098 24.7672 33.7159 24.781 33.7178 24.7852C33.7203 24.7909 33.7224 24.7954 33.7232 24.7971C33.7241 24.7989 33.7249 24.8007 33.725 24.8009L34.6271 24.3692ZM34.6678 25.6614C34.7999 24.8597 34.7013 24.5245 34.6271 24.3693L33.725 24.8009C33.7256 24.8021 33.7244 24.7996 33.723 24.7965C33.7216 24.7933 33.7203 24.7903 33.7193 24.7875C33.7171 24.782 33.7166 24.7798 33.7171 24.7817C33.7183 24.7858 33.7243 24.8092 33.7285 24.8584C33.7371 24.9585 33.7375 25.1564 33.6811 25.4988L34.6678 25.6614ZM33.7459 26.8949C34.1672 26.6231 34.4847 26.2169 34.6474 25.7423L33.7014 25.418C33.6114 25.6807 33.4359 25.9048 33.2038 26.0545L33.7459 26.8949ZM32.9867 27.1392C33.2436 27.1147 33.4926 27.0371 33.7182 26.9115L33.2316 26.0379C33.1266 26.0963 33.0109 26.1323 32.8917 26.1437L32.9867 27.1392ZM32.2253 27.0539C32.4705 27.1346 32.7297 27.1637 32.9867 27.1392L32.8917 26.1437C32.7725 26.1551 32.6521 26.1416 32.5383 26.1041L32.2253 27.0539ZM32.3162 27.079H32.3818V26.079H32.3162V27.079ZM31.5243 26.7581C31.7289 26.9095 31.9635 27.0152 32.2124 27.0681L32.42 26.0899C32.3114 26.0668 32.2089 26.0206 32.1193 25.9543L31.5243 26.7581ZM31.0265 26.1905C31.15 26.4131 31.3198 26.6067 31.5243 26.7581L32.1193 25.9543C32.0297 25.888 31.9552 25.8031 31.9008 25.7051L31.0265 26.1905ZM28.3602 23.3971C29.4915 24.0521 30.4142 25.0169 31.0203 26.179L31.907 25.7166C31.2133 24.3866 30.1571 23.2819 28.8613 22.5317L28.3602 23.3971ZM18.6463 39.6225C19.1554 39.9455 19.6918 40.2261 20.2503 40.4608L20.6377 39.5389C20.1309 39.3259 19.644 39.0712 19.1818 38.7781L18.6463 39.6225ZM20.2503 40.4608C21.6309 41.0411 23.1162 41.3282 24.6128 41.3041L24.5966 40.3042C23.2386 40.3261 21.8907 40.0656 20.6377 39.5389L20.2503 40.4608ZM24.5978 41.3041C26.513 41.3305 28.4018 40.8548 30.0777 39.9241L29.5922 39.0499C28.0688 39.8959 26.3521 40.3282 24.6116 40.3042L24.5978 41.3041ZM30.0702 39.9283C31.7227 39.0474 33.1187 37.7505 34.1215 36.1651L33.2764 35.6305C32.366 37.0698 31.099 38.2466 29.5998 39.0458L30.0702 39.9283ZM34.1616 36.0873C34.3501 35.6271 34.4338 35.3026 34.4664 35.0758C34.4828 34.9618 34.4867 34.87 34.4836 34.7964C34.4821 34.7595 34.4788 34.7271 34.4744 34.6986C34.4722 34.6844 34.4697 34.6712 34.4671 34.6589C34.4657 34.6527 34.4643 34.6469 34.4629 34.6412C34.4622 34.6384 34.4615 34.6356 34.4608 34.6329C34.4604 34.6315 34.46 34.6302 34.4597 34.6289C34.4595 34.6282 34.4593 34.6275 34.4591 34.6269C34.459 34.6266 34.4589 34.6261 34.4589 34.6259C34.4587 34.6254 34.4586 34.6249 33.9777 34.7618C33.4968 34.8986 33.4966 34.8981 33.4965 34.8976C33.4964 34.8975 33.4963 34.897 33.4962 34.8967C33.496 34.896 33.4959 34.8954 33.4957 34.8948C33.4953 34.8935 33.495 34.8922 33.4947 34.891C33.494 34.8886 33.4934 34.8862 33.4928 34.8839C33.4917 34.8793 33.4907 34.875 33.4898 34.8711C33.4881 34.8632 33.4869 34.8566 33.4861 34.8514C33.4845 34.841 33.4844 34.8363 33.4845 34.8382C33.4847 34.8422 33.4855 34.8718 33.4766 34.9334C33.4587 35.0578 33.403 35.3013 33.2363 35.7082L34.1616 36.0873ZM34.4777 34.7618V34.6904H33.4777V34.7618H34.4777ZM34.4706 34.6066C34.4268 34.3489 34.3305 34.1029 34.1877 33.884L33.3501 34.4303C33.418 34.5344 33.4639 34.6514 33.4847 34.7742L34.4706 34.6066ZM34.1877 33.884C34.045 33.6651 33.8587 33.4779 33.6405 33.3343L33.0906 34.1696C33.1939 34.2376 33.2823 34.3263 33.3501 34.4303L34.1877 33.884ZM33.6477 33.3391C33.4295 33.19 33.1814 33.0903 32.9206 33.0471L32.7572 34.0336C32.874 34.053 32.9853 34.0977 33.0834 34.1647L33.6477 33.3391ZM32.9206 33.0471C32.6599 33.0039 32.393 33.0183 32.1384 33.0892L32.4066 34.0525C32.5208 34.0207 32.6404 34.0143 32.7572 34.0336L32.9206 33.0471ZM32.1981 33.0764C31.9317 33.1165 31.6765 33.211 31.4482 33.3542L31.9794 34.2014C32.0914 34.1312 32.2165 34.0849 32.3469 34.0653L32.1981 33.0764ZM31.4482 33.3542C31.2199 33.4973 31.0235 33.6859 30.871 33.9081L31.6956 34.4739C31.7707 34.3643 31.8673 34.2717 31.9794 34.2014L31.4482 33.3542ZM30.8539 33.9348C30.2127 35.0092 29.297 35.8915 28.2021 36.4903L28.6819 37.3677C29.9338 36.683 30.9802 35.6746 31.7126 34.4472L30.8539 33.9348ZM28.2021 36.4903C27.1072 37.0892 25.8728 37.3828 24.627 37.3409L24.5934 38.3403C26.0184 38.3882 27.4301 38.0524 28.6819 37.3677L28.2021 36.4903ZM24.615 37.3406C23.4701 37.3296 22.3545 37.0548 21.3487 36.5501L20.9002 37.4439C22.0409 38.0163 23.3065 38.3281 24.6054 38.3406L24.615 37.3406ZM20.7715 36.6429L18.5611 38.8462L19.267 39.5544L21.4774 37.3511L20.7715 36.6429Z" fill="white" mask="url(#path-7-outside-1)"/>
<mask id="path-9-outside-2" maskUnits="userSpaceOnUse" x="113.141" y="17.9236" width="24" height="24" fill="black">
<rect fill="white" x="113.141" y="17.9236" width="24" height="24"/>
<path fill-rule="evenodd" clip-rule="evenodd" d="M127.149 19.1328C129.261 19.5538 131.201 20.5943 132.724 22.1226C133.75 23.1256 134.559 24.3307 135.098 25.6624C135.638 26.9941 135.898 28.4235 135.861 29.8609C135.862 32.0154 135.226 34.1218 134.033 35.9129C132.841 37.7041 131.146 39.0995 129.163 39.9223C127.18 40.7451 124.998 40.9584 122.894 40.5351C121.906 40.3361 120.955 40.0008 120.068 39.5428L122.296 37.3226C123.161 37.6425 124.078 37.7998 125.002 37.7857C126.053 37.7992 127.096 37.5963 128.066 37.1895C129.036 36.7826 129.913 36.1805 130.642 35.4203L130.626 35.4093C131.717 34.2962 132.456 32.8839 132.751 31.3501C133.045 29.8163 132.882 28.2294 132.281 26.7886C131.68 25.3478 130.668 24.1174 129.373 23.2521C128.078 22.3868 126.557 21.9251 125.002 21.925C123.968 21.9092 122.942 22.1054 121.986 22.5018C121.03 22.8981 120.165 23.4862 119.444 24.23C118.695 24.9605 118.101 25.8364 117.7 26.8045C117.299 27.7725 117.098 28.8124 117.11 29.8609C117.101 30.8995 117.303 31.9291 117.703 32.8868C117.906 33.3723 118.158 33.8341 118.454 34.2654L116.316 36.3964C115.76 35.6755 115.299 34.8828 114.947 34.0376C114.396 32.7156 114.122 31.2938 114.142 29.8609C114.141 27.6986 114.779 25.5846 115.975 23.7862C117.17 21.9879 118.87 20.5859 120.859 19.7576C122.848 18.9293 125.037 18.7119 127.149 19.1328Z"/>
</mask>
<path fill-rule="evenodd" clip-rule="evenodd" d="M127.149 19.1328C129.261 19.5538 131.201 20.5943 132.724 22.1226C133.75 23.1256 134.559 24.3307 135.098 25.6624C135.638 26.9941 135.898 28.4235 135.861 29.8609C135.862 32.0154 135.226 34.1218 134.033 35.9129C132.841 37.7041 131.146 39.0995 129.163 39.9223C127.18 40.7451 124.998 40.9584 122.894 40.5351C121.906 40.3361 120.955 40.0008 120.068 39.5428L122.296 37.3226C123.161 37.6425 124.078 37.7998 125.002 37.7857C126.053 37.7992 127.096 37.5963 128.066 37.1895C129.036 36.7826 129.913 36.1805 130.642 35.4203L130.626 35.4093C131.717 34.2962 132.456 32.8839 132.751 31.3501C133.045 29.8163 132.882 28.2294 132.281 26.7886C131.68 25.3478 130.668 24.1174 129.373 23.2521C128.078 22.3868 126.557 21.9251 125.002 21.925C123.968 21.9092 122.942 22.1054 121.986 22.5018C121.03 22.8981 120.165 23.4862 119.444 24.23C118.695 24.9605 118.101 25.8364 117.7 26.8045C117.299 27.7725 117.098 28.8124 117.11 29.8609C117.101 30.8995 117.303 31.9291 117.703 32.8868C117.906 33.3723 118.158 33.8341 118.454 34.2654L116.316 36.3964C115.76 35.6755 115.299 34.8828 114.947 34.0376C114.396 32.7156 114.122 31.2938 114.142 29.8609C114.141 27.6986 114.779 25.5846 115.975 23.7862C117.17 21.9879 118.87 20.5859 120.859 19.7576C122.848 18.9293 125.037 18.7119 127.149 19.1328Z" fill="white"/>
<path d="M132.724 22.1226L132.37 22.4756L132.375 22.4801L132.724 22.1226ZM127.149 19.1328L127.247 18.6425V18.6425L127.149 19.1328ZM135.098 25.6624L134.635 25.8503L135.098 25.6624ZM135.861 29.8609L135.361 29.8481L135.361 29.861L135.861 29.8609ZM134.033 35.9129L133.617 35.6358L134.033 35.9129ZM122.894 40.5351L122.796 41.0252L122.894 40.5351ZM120.068 39.5428L119.715 39.1887L119.23 39.6727L119.839 39.9871L120.068 39.5428ZM122.296 37.3226L122.469 36.8536L122.169 36.7428L121.943 36.9685L122.296 37.3226ZM125.002 37.7857L125.008 37.2855L124.994 37.2858L125.002 37.7857ZM128.066 37.1895L128.259 37.6506L128.259 37.6506L128.066 37.1895ZM130.642 35.4203L131.003 35.7665L131.416 35.3363L130.92 35.0048L130.642 35.4203ZM130.626 35.4093L130.269 35.0593L129.847 35.4897L130.348 35.8249L130.626 35.4093ZM132.751 31.3501L132.26 31.2559V31.2559L132.751 31.3501ZM129.373 23.2521L129.651 22.8364L129.373 23.2521ZM125.002 21.925L124.994 22.425L125.002 22.425L125.002 21.925ZM121.986 22.5018L121.795 22.0399L121.795 22.0399L121.986 22.5018ZM119.444 24.23L119.793 24.5882L119.803 24.5782L119.444 24.23ZM117.7 26.8045L118.162 26.9959L117.7 26.8045ZM117.11 29.8609L117.61 29.8652L117.61 29.8552L117.11 29.8609ZM117.703 32.8868L118.164 32.694L118.164 32.694L117.703 32.8868ZM118.454 34.2654L118.807 34.6195L119.101 34.3257L118.866 33.9825L118.454 34.2654ZM116.316 36.3964L115.92 36.7018L116.267 37.1514L116.669 36.7505L116.316 36.3964ZM114.947 34.0376L114.485 34.23L114.485 34.23L114.947 34.0376ZM114.142 29.8609L114.642 29.868L114.642 29.8606L114.142 29.8609ZM115.975 23.7862L116.391 24.063L116.391 24.063L115.975 23.7862ZM120.859 19.7576L121.051 20.2192L121.051 20.2192L120.859 19.7576ZM133.079 21.7696C131.486 20.1712 129.456 19.0829 127.247 18.6425L127.051 19.6232C129.066 20.0248 130.917 21.0173 132.37 22.4756L133.079 21.7696ZM135.562 25.4746C134.996 24.0792 134.149 22.8162 133.074 21.7651L132.375 22.4801C133.351 23.4349 134.121 24.5823 134.635 25.8503L135.562 25.4746ZM136.361 29.8736C136.4 28.3676 136.128 26.87 135.562 25.4746L134.635 25.8503C135.149 27.1183 135.397 28.4794 135.362 29.8481L136.361 29.8736ZM134.45 36.19C135.697 34.3166 136.362 32.1138 136.361 29.8607L135.361 29.861C135.362 31.9171 134.755 33.9269 133.617 35.6358L134.45 36.19ZM129.354 40.3841C131.429 39.5232 133.202 38.0634 134.45 36.19L133.617 35.6358C132.479 37.3447 130.862 38.6757 128.971 39.4605L129.354 40.3841ZM122.796 41.0252C124.997 41.4682 127.28 41.245 129.354 40.3841L128.971 39.4605C127.08 40.2453 124.999 40.4486 122.993 40.0449L122.796 41.0252ZM119.839 39.9871C120.767 40.4663 121.761 40.8171 122.796 41.0252L122.993 40.0449C122.05 39.8552 121.144 39.5354 120.298 39.0986L119.839 39.9871ZM121.943 36.9685L119.715 39.1887L120.421 39.897L122.649 37.6767L121.943 36.9685ZM124.994 37.2858C124.132 37.2989 123.276 37.1521 122.469 36.8536L122.122 37.7916C123.045 38.1328 124.024 38.3007 125.01 38.2856L124.994 37.2858ZM127.873 36.7284C126.966 37.1087 125.991 37.2984 125.008 37.2857L124.996 38.2857C126.115 38.3001 127.226 38.0839 128.259 37.6506L127.873 36.7284ZM130.281 35.0742C129.599 35.7851 128.779 36.3481 127.873 36.7284L128.259 37.6506C129.293 37.2172 130.226 36.576 131.003 35.7665L130.281 35.0742ZM130.348 35.8249L130.364 35.8359L130.92 35.0048L130.904 34.9938L130.348 35.8249ZM132.26 31.2559C131.984 32.6933 131.291 34.0165 130.269 35.0593L130.983 35.7594C132.143 34.5758 132.929 33.0746 133.242 31.4444L132.26 31.2559ZM131.819 26.981C132.383 28.3312 132.536 29.8184 132.26 31.2559L133.242 31.4444C133.555 29.8143 133.381 28.1275 132.742 26.5961L131.819 26.981ZM129.096 23.6678C130.309 24.4783 131.256 25.6309 131.819 26.981L132.742 26.5961C132.104 25.0646 131.028 23.7565 129.651 22.8364L129.096 23.6678ZM125.002 22.425C126.458 22.4251 127.883 22.8574 129.096 23.6678L129.651 22.8364C128.274 21.9162 126.657 21.4251 125.002 21.425L125.002 22.425ZM122.178 22.9636C123.07 22.5934 124.029 22.4101 124.994 22.425L125.01 21.4251C123.907 21.4082 122.813 21.6174 121.795 22.0399L122.178 22.9636ZM119.803 24.5782C120.477 23.8832 121.285 23.3338 122.178 22.9636L121.795 22.0399C120.776 22.4624 119.854 23.0892 119.085 23.8819L119.803 24.5782ZM118.162 26.9959C118.537 26.0904 119.092 25.2711 119.793 24.588L119.095 23.8721C118.297 24.6499 117.665 25.5825 117.238 26.613L118.162 26.9959ZM117.61 29.8552C117.599 28.8743 117.787 27.9015 118.162 26.9959L117.238 26.613C116.811 27.6435 116.598 28.7505 116.61 29.8665L117.61 29.8552ZM118.164 32.694C117.79 31.7987 117.602 30.8362 117.61 29.8652L116.61 29.8565C116.6 30.9627 116.815 32.0594 117.242 33.0796L118.164 32.694ZM118.866 33.9825C118.589 33.5794 118.354 33.1478 118.164 32.694L117.242 33.0796C117.458 33.5967 117.726 34.0887 118.041 34.5483L118.866 33.9825ZM116.669 36.7505L118.807 34.6195L118.101 33.9113L115.963 36.0423L116.669 36.7505ZM114.485 34.23C114.854 35.1156 115.337 35.9463 115.92 36.7018L116.712 36.091C116.182 35.4048 115.744 34.65 115.408 33.8452L114.485 34.23ZM113.642 29.8537C113.621 31.355 113.908 32.8448 114.485 34.23L115.408 33.8452C114.883 32.5865 114.623 31.2326 114.642 29.868L113.642 29.8537ZM115.558 23.5094C114.308 25.39 113.641 27.6004 113.642 29.8611L114.642 29.8606C114.642 27.7968 115.25 25.7792 116.391 24.063L115.558 23.5094ZM120.667 19.296C118.586 20.1624 116.808 21.6288 115.558 23.5094L116.391 24.063C117.532 22.3469 119.154 21.0093 121.051 20.2192L120.667 19.296ZM127.247 18.6425C125.037 18.2021 122.747 18.4296 120.667 19.296L121.051 20.2192C122.948 19.429 125.036 19.2216 127.051 19.6232L127.247 18.6425Z" fill="white" mask="url(#path-9-outside-2)"/>
</g>
<defs>
<linearGradient id="paint0_linear" x1="57.6669" y1="19.0674" x2="64.4703" y2="70.8976" gradientUnits="userSpaceOnUse">
<stop stop-color="#3DEDCA"/>
<stop offset="1" stop-color="#3760C9"/>
</linearGradient>
<linearGradient id="paint1_linear" x1="91.344" y1="-2.17433" x2="98.1489" y2="49.664" gradientUnits="userSpaceOnUse">
<stop stop-color="#3DEDCA"/>
<stop offset="1" stop-color="#3760C9"/>
</linearGradient>
<clipPath id="clip0">
<rect width="149" height="56" fill="white"/>
</clipPath>
</defs>
</svg>
