<svg width="641" height="1225" viewBox="0 0 641 1225" fill="none" xmlns="http://www.w3.org/2000/svg">
<g opacity="0.1">
<g opacity="0.714286">
<path d="M93.7137 895.173L-62.3592 1037.81L-75.9726 839.224L93.7137 895.173Z" stroke="white" stroke-width="2"/>
</g>
<g opacity="0.734694">
<path d="M100.923 851.306L-63.3779 979.934L-60.7692 778.559L100.923 851.306Z" stroke="white" stroke-width="2"/>
</g>
<g opacity="0.755102">
<path d="M111.906 807.542L-59.3174 921.279L-40.5886 718.64L111.906 807.542Z" stroke="white" stroke-width="2"/>
</g>
<g opacity="0.77551">
<path d="M126.576 764.246L-50.2203 862.327L-15.5943 659.955L126.576 764.246Z" stroke="white" stroke-width="2"/>
</g>
<g opacity="0.795918">
<path d="M144.817 721.778L-36.1673 803.563L14.0143 602.978L144.817 721.778Z" stroke="white" stroke-width="2"/>
</g>
<g opacity="0.816327">
<path d="M166.49 680.488L-17.2772 745.467L48.003 548.168L166.49 680.488Z" stroke="white" stroke-width="2"/>
</g>
<g opacity="0.836735">
<path d="M191.427 640.717L6.29539 688.512L86.1058 495.964L191.427 640.717Z" stroke="white" stroke-width="2"/>
</g>
<g opacity="0.857143">
<path d="M219.437 602.791L34.3591 633.157L128.025 446.783L219.437 602.791Z" stroke="white" stroke-width="2"/>
</g>
<g opacity="0.877551">
<path d="M250.306 567.022L66.6901 579.848L173.435 401.017L250.306 567.022Z" stroke="white" stroke-width="2"/>
</g>
<g opacity="0.897959">
<path d="M283.799 533.7L103.033 529.013L221.987 359.028L283.799 533.7Z" stroke="white" stroke-width="2"/>
</g>
<g opacity="0.918367">
<path d="M319.664 503.097L143.102 481.055L273.309 321.148L319.664 503.097Z" stroke="white" stroke-width="2"/>
</g>
<g opacity="0.938776">
<path d="M357.629 475.464L186.586 436.356L327.007 287.675L357.629 475.464Z" stroke="white" stroke-width="2"/>
</g>
<g opacity="0.959184">
<path d="M397.409 451.024L233.146 395.268L382.675 258.87L397.409 451.024Z" stroke="white" stroke-width="2"/>
</g>
<g opacity="0.979592">
<path d="M438.707 429.977L282.426 358.115L439.892 234.96L438.707 429.977Z" stroke="white" stroke-width="2"/>
</g>
<path d="M481.212 412.638L333.959 325.181L498.073 216.26L481.212 412.638Z" stroke="white" stroke-width="2"/>
</g>
</svg>
