<svg width="757" height="619" viewBox="0 0 757 619" fill="none" xmlns="http://www.w3.org/2000/svg">
<g opacity="0.2" filter="url(#filter0_f)">
<g opacity="0.01">
<rect x="297.114" y="335.836" width="237.799" height="205.746" transform="rotate(115 297.114 335.836)" stroke="white" stroke-width="3"/>
</g>
<g opacity="0.0204082">
<rect x="302.617" y="326.023" width="236.277" height="204.878" transform="rotate(120 302.617 326.023)" stroke="white" stroke-width="3"/>
</g>
<g opacity="0.0408163">
<rect x="308.873" y="316.732" width="234.755" height="204.01" transform="rotate(125 308.873 316.732)" stroke="white" stroke-width="3"/>
</g>
<g opacity="0.0612245">
<rect x="315.831" y="308.023" width="233.233" height="203.142" transform="rotate(130 315.831 308.023)" stroke="white" stroke-width="3"/>
</g>
<g opacity="0.0816327">
<rect x="323.435" y="299.953" width="231.711" height="202.274" transform="rotate(135 323.435 299.953)" stroke="white" stroke-width="3"/>
</g>
<g opacity="0.102041">
<rect x="331.623" y="292.574" width="230.189" height="201.406" transform="rotate(140 331.623 292.574)" stroke="white" stroke-width="3"/>
</g>
<g opacity="0.122449">
<rect x="340.33" y="285.93" width="228.667" height="200.538" transform="rotate(145 340.33 285.93)" stroke="white" stroke-width="3"/>
</g>
<g opacity="0.142857">
<rect x="349.489" y="280.062" width="227.144" height="199.67" transform="rotate(150 349.489 280.062)" stroke="white" stroke-width="3"/>
</g>
<g opacity="0.163265">
<rect x="359.029" y="275.001" width="225.622" height="198.802" transform="rotate(155 359.029 275.001)" stroke="white" stroke-width="3"/>
</g>
<g opacity="0.183673">
<rect x="368.875" y="270.776" width="224.1" height="197.934" transform="rotate(160 368.875 270.776)" stroke="white" stroke-width="3"/>
</g>
<g opacity="0.204082">
<rect x="378.953" y="267.405" width="222.578" height="197.066" transform="rotate(165 378.953 267.405)" stroke="white" stroke-width="3"/>
</g>
<g opacity="0.22449">
<rect x="389.186" y="264.903" width="221.056" height="196.198" transform="rotate(170 389.186 264.903)" stroke="white" stroke-width="3"/>
</g>
<g opacity="0.244898">
<rect x="399.497" y="263.275" width="219.534" height="195.33" transform="rotate(175 399.497 263.275)" stroke="white" stroke-width="3"/>
</g>
<g opacity="0.265306">
<rect x="409.81" y="262.522" width="218.012" height="194.462" transform="rotate(180 409.81 262.522)" stroke="white" stroke-width="3"/>
</g>
<g opacity="0.285714">
<rect x="420.048" y="262.636" width="216.49" height="193.594" transform="rotate(-175 420.048 262.636)" stroke="white" stroke-width="3"/>
</g>
<g opacity="0.306122">
<rect x="430.136" y="263.605" width="214.967" height="192.726" transform="rotate(-170 430.136 263.605)" stroke="white" stroke-width="3"/>
</g>
<g opacity="0.326531">
<rect x="440.001" y="265.407" width="213.445" height="191.858" transform="rotate(-165 440.001 265.407)" stroke="white" stroke-width="3"/>
</g>
<g opacity="0.346939">
<rect x="449.573" y="268.017" width="211.923" height="190.99" transform="rotate(-160 449.573 268.017)" stroke="white" stroke-width="3"/>
</g>
<g opacity="0.367347">
<rect x="458.782" y="271.403" width="210.401" height="190.122" transform="rotate(-155 458.782 271.403)" stroke="white" stroke-width="3"/>
</g>
<g opacity="0.387755">
<rect x="467.565" y="275.526" width="208.879" height="189.254" transform="rotate(-150 467.565 275.526)" stroke="white" stroke-width="3"/>
</g>
<g opacity="0.408163">
<rect x="475.861" y="280.343" width="207.357" height="188.386" transform="rotate(-145 475.861 280.343)" stroke="white" stroke-width="3"/>
</g>
<g opacity="0.428571">
<rect x="483.613" y="285.807" width="205.835" height="187.518" transform="rotate(-140 483.613 285.807)" stroke="white" stroke-width="3"/>
</g>
<g opacity="0.44898">
<rect x="490.77" y="291.864" width="204.313" height="186.651" transform="rotate(-135 490.77 291.864)" stroke="white" stroke-width="3"/>
</g>
<g opacity="0.469388">
<rect x="497.284" y="298.457" width="202.791" height="185.783" transform="rotate(-130 497.284 298.457)" stroke="white" stroke-width="3"/>
</g>
<g opacity="0.489796">
<rect x="503.115" y="305.527" width="201.268" height="184.915" transform="rotate(-125 503.115 305.527)" stroke="white" stroke-width="3"/>
</g>
<g opacity="0.510204">
<rect x="508.226" y="313.01" width="199.746" height="184.047" transform="rotate(-120 508.226 313.01)" stroke="white" stroke-width="3"/>
</g>
<g opacity="0.530612">
<rect x="512.587" y="320.838" width="198.224" height="183.179" transform="rotate(-115 512.587 320.838)" stroke="white" stroke-width="3"/>
</g>
<g opacity="0.55102">
<rect x="516.175" y="328.946" width="196.702" height="182.311" transform="rotate(-110 516.175 328.946)" stroke="white" stroke-width="3"/>
</g>
<g opacity="0.571429">
<rect x="518.971" y="337.261" width="195.18" height="181.443" transform="rotate(-105 518.971 337.261)" stroke="white" stroke-width="3"/>
</g>
<g opacity="0.591837">
<rect x="520.965" y="345.714" width="193.658" height="180.575" transform="rotate(-100 520.965 345.714)" stroke="white" stroke-width="3"/>
</g>
<g opacity="0.612245">
<rect x="522.151" y="354.234" width="192.136" height="179.707" transform="rotate(-95 522.151 354.234)" stroke="white" stroke-width="3"/>
</g>
<g opacity="0.632653">
<rect x="522.529" y="362.749" width="190.614" height="178.839" transform="rotate(-90 522.529 362.749)" stroke="white" stroke-width="3"/>
</g>
<g opacity="0.653061">
<rect x="522.108" y="371.189" width="189.091" height="177.971" transform="rotate(-85 522.108 371.189)" stroke="white" stroke-width="3"/>
</g>
<g opacity="0.673469">
<rect x="520.901" y="379.486" width="187.569" height="177.103" transform="rotate(-80 520.901 379.486)" stroke="white" stroke-width="3"/>
</g>
<g opacity="0.693878">
<rect x="518.926" y="387.571" width="186.047" height="176.235" transform="rotate(-75 518.926 387.571)" stroke="white" stroke-width="3"/>
</g>
<g opacity="0.714286">
<rect x="516.209" y="395.381" width="184.525" height="175.367" transform="rotate(-70 516.209 395.381)" stroke="white" stroke-width="3"/>
</g>
<g opacity="0.734694">
<rect x="512.78" y="402.851" width="183.003" height="174.499" transform="rotate(-65 512.78 402.851)" stroke="white" stroke-width="3"/>
</g>
<g opacity="0.755102">
<rect x="508.674" y="409.924" width="181.481" height="173.631" transform="rotate(-60 508.674 409.924)" stroke="white" stroke-width="3"/>
</g>
<g opacity="0.77551">
<rect x="503.934" y="416.543" width="179.959" height="172.763" transform="rotate(-55 503.934 416.543)" stroke="white" stroke-width="3"/>
</g>
<g opacity="0.795918">
<rect x="498.602" y="422.657" width="178.437" height="171.895" transform="rotate(-50 498.602 422.657)" stroke="white" stroke-width="3"/>
</g>
<g opacity="0.816327">
<rect x="492.729" y="428.219" width="176.915" height="171.027" transform="rotate(-45 492.729 428.219)" stroke="white" stroke-width="3"/>
</g>
<g opacity="0.836735">
<rect x="486.367" y="433.187" width="175.392" height="170.159" transform="rotate(-40 486.367 433.187)" stroke="white" stroke-width="3"/>
</g>
<g opacity="0.857143">
<rect x="479.573" y="437.523" width="173.87" height="169.291" transform="rotate(-35 479.573 437.523)" stroke="white" stroke-width="3"/>
</g>
<g opacity="0.877551">
<rect x="472.405" y="441.195" width="172.348" height="168.423" transform="rotate(-30 472.405 441.195)" stroke="white" stroke-width="3"/>
</g>
<g opacity="0.897959">
<rect x="464.924" y="444.176" width="170.826" height="167.555" transform="rotate(-25 464.924 444.176)" stroke="white" stroke-width="3"/>
</g>
<g opacity="0.918367">
<rect x="457.194" y="446.445" width="169.304" height="166.687" transform="rotate(-20 457.194 446.445)" stroke="white" stroke-width="3"/>
</g>
<g opacity="0.938776">
<rect x="449.278" y="447.986" width="167.782" height="165.819" transform="rotate(-15 449.278 447.986)" stroke="white" stroke-width="3"/>
</g>
<g opacity="0.959184">
<rect x="441.242" y="448.79" width="166.26" height="164.951" transform="rotate(-10 441.242 448.79)" stroke="white" stroke-width="3"/>
</g>
<g opacity="0.979592">
<rect x="433.152" y="448.853" width="164.738" height="164.083" transform="rotate(-5 433.152 448.853)" stroke="white" stroke-width="3"/>
</g>
<rect x="425.072" y="448.176" width="163.215" height="163.215" stroke="white" stroke-width="3"/>
</g>
<defs>
<filter id="filter0_f" x="0" y="0.00177002" width="756.833" height="618.935" filterUnits="userSpaceOnUse" color-interpolation-filters="sRGB">
<feFlood flood-opacity="0" result="BackgroundImageFix"/>
<feBlend mode="normal" in="SourceGraphic" in2="BackgroundImageFix" result="shape"/>
<feGaussianBlur stdDeviation="2.5" result="effect1_foregroundBlur"/>
</filter>
</defs>
</svg>
