<svg width="55" height="55" viewBox="0 0 55 55" fill="none" xmlns="http://www.w3.org/2000/svg">
<g filter="url(#filter0_i)">
<path fill-rule="evenodd" clip-rule="evenodd" d="M44.3381 0.0333596C43.813 0.0801931 42.7109 0.315547 42.1709 0.496199C40.6914 0.991073 39.5325 1.70207 38.3741 2.82551C36.2197 4.91485 35.1708 7.69701 35.4159 10.6716C35.5534 12.3401 36.4328 17.3119 36.6726 17.7763C36.8137 18.0496 37.1256 18.3538 37.4272 18.5123C37.7306 18.6717 38.4998 18.6717 38.8032 18.5123C39.1033 18.3546 39.4165 18.05 39.5558 17.7803C39.7819 17.3424 39.7699 17.0493 39.463 15.5219C38.9262 12.85 38.6354 10.4948 38.7069 9.39912C38.8451 7.28287 40.0145 5.33516 41.8201 4.21384C44.4733 2.56624 48.1015 3.08453 50.0639 5.39155C50.9198 6.39778 51.5072 7.85343 51.6905 9.42241C51.7843 10.226 51.7352 12.266 51.592 13.5094C51.2202 16.7381 50.241 20.0143 48.8228 22.7745C48.2274 23.9334 48.2252 23.9393 48.2219 24.406C48.218 24.9699 48.35 25.2651 48.7723 25.6362C49.2188 26.0286 49.7963 26.1332 50.394 25.9298C50.9112 25.7539 51.1662 25.4311 51.7978 24.1527C53.822 20.0563 55.0036 15.1264 55 10.793C54.9987 9.28098 54.8207 8.11058 54.4019 6.86081C53.4267 3.95064 51.3666 1.70325 48.7127 0.654434C47.4211 0.144074 45.7532 -0.0927786 44.3381 0.0333596ZM25.6531 8.86004C25.3517 8.89145 25.0281 8.95801 24.9338 9.00797C24.6425 9.1624 0.758518 33.0793 0.531428 33.4439C0.419477 33.6238 0.253491 33.975 0.16268 34.2245C0.0162688 34.6265 -0.00224361 34.767 0.000195533 35.4587C0.00332264 36.3428 0.11027 36.7534 0.512352 37.4257C0.826814 37.9514 16.942 54.0539 17.5359 54.436C17.7579 54.5787 18.1735 54.7683 18.4594 54.8573C18.931 55.0042 19.0474 55.0162 19.7132 54.9875C20.5585 54.9511 21.0146 54.8191 21.5868 54.4451C21.9812 54.1874 46.0105 30.2319 46.1595 29.948C46.2058 29.8597 46.2933 29.525 46.3538 29.2043C46.5043 28.4067 46.5015 24.6821 46.3487 22.4389C46.1145 19.0012 45.5579 13.3496 45.3031 11.8234C45.1976 11.1913 45.0084 10.6479 44.8113 10.4105C44.4546 9.98092 43.9316 9.83018 41.9139 9.57534C40.4552 9.39113 40.3301 9.3867 40.2796 9.51802C40.1827 9.77011 40.3097 11.3574 40.53 12.6477L40.6293 13.2296L41.2042 13.8066C41.6423 14.2465 41.8413 14.5042 42.0413 14.8909C42.7242 16.2113 42.7246 17.6684 42.0424 19.0357C41.8346 19.4522 41.662 19.6826 41.2411 20.1054C40.7874 20.5611 40.6134 20.6879 40.1135 20.9275C39.4133 21.263 38.8088 21.4086 38.1158 21.4086C36.5038 21.4086 35.0826 20.6166 34.249 19.2535C34.1437 19.0814 33.9662 18.6739 33.8545 18.3481C33.6685 17.8058 33.6511 17.6895 33.6493 16.975C33.647 16.0795 33.7836 15.4765 34.1409 14.8047L34.3487 14.4139L34.2011 13.4705C33.946 11.8406 33.8481 10.8553 33.8441 9.87864L33.8403 8.9331L33.4604 8.89569C32.7983 8.83044 26.2248 8.80047 25.6531 8.86004Z" fill="#3ADFF0"/>
</g>
<defs>
<filter id="filter0_i" x="0" y="0" width="55" height="59" filterUnits="userSpaceOnUse" color-interpolation-filters="sRGB">
<feFlood flood-opacity="0" result="BackgroundImageFix"/>
<feBlend mode="normal" in="SourceGraphic" in2="BackgroundImageFix" result="shape"/>
<feColorMatrix in="SourceAlpha" type="matrix" values="0 0 0 0 0 0 0 0 0 0 0 0 0 0 0 0 0 0 127 0" result="hardAlpha"/>
<feOffset dy="4"/>
<feGaussianBlur stdDeviation="2"/>
<feComposite in2="hardAlpha" operator="arithmetic" k2="-1" k3="1"/>
<feColorMatrix type="matrix" values="0 0 0 0 0 0 0 0 0 0 0 0 0 0 0 0 0 0 0.15 0"/>
<feBlend mode="normal" in2="shape" result="effect1_innerShadow"/>
</filter>
</defs>
</svg>
