<svg width="80" height="55" viewBox="0 0 80 55" fill="none" xmlns="http://www.w3.org/2000/svg">
<g filter="url(#filter0_i)">
<path d="M64.8665 32.2844C65.0722 32.1333 65.3193 32.0488 65.5745 32.0422C65.8297 32.0357 66.0807 32.1074 66.2939 32.2478C66.5071 32.3882 66.6722 32.5905 66.7671 32.8274C66.8619 33.0644 66.8819 33.3247 66.8244 33.5734C64.0509 45.825 53.077 55 39.9984 55C37.2211 55.0009 34.4597 54.5794 31.8091 53.75C31.5645 53.6746 31.3489 53.5259 31.1915 53.324C31.0341 53.1222 30.9425 52.8768 30.929 52.6212C30.9156 52.3656 30.9809 52.112 31.1162 51.8947C31.2515 51.6775 31.4503 51.5069 31.6856 51.4062C37.5425 48.8249 43.2534 45.9242 48.7925 42.7172C54.336 39.5341 59.702 36.0513 64.8665 32.2844Z" fill="#3ADFF0"/>
<path d="M3.00961 40.5484C3.66431 39.6766 4.43309 38.7609 5.30656 37.8094C5.59201 37.495 5.9536 37.2594 6.3565 37.1252C6.7594 36.9911 7.19005 36.9629 7.60699 37.0434C8.02393 37.124 8.41313 37.3105 8.7371 37.585C9.06106 37.8595 9.30888 38.2129 9.45671 38.6109C9.45671 38.6359 9.4739 38.6594 9.48328 38.6844C9.63904 39.1076 9.67551 39.5655 9.58871 40.008C9.50191 40.4505 9.29517 40.8607 8.99107 41.1937C5.43781 45.1 4.8628 47.2109 5.00968 47.6562C5.32219 48.0047 7.67384 48.7328 14.0959 47.1047C15.0158 46.8713 16.022 46.587 17.1148 46.2516C17.819 46.0349 18.5372 45.801 19.2696 45.55C18.1192 44.2307 17.0968 42.805 16.2163 41.2922C16.1898 41.2469 16.1616 41.2016 16.1351 41.1547C13.7497 36.9994 12.4954 32.2913 12.4975 27.5C12.4968 26.5083 12.549 25.5174 12.6537 24.5312C14.1491 10.7547 25.8417 4.33953e-06 39.9984 4.33953e-06C46.0052 -0.00337492 51.8466 1.96694 56.624 5.60781C59.5196 7.81162 61.953 10.564 63.7852 13.7078C63.8102 13.7531 63.8383 13.7984 63.8649 13.8438C64.7357 15.3608 65.4594 16.9576 66.0259 18.6125C66.6082 18.1052 67.1702 17.6016 67.7119 17.1016C68.5541 16.3203 69.301 15.5969 69.9651 14.9141C74.5856 10.1859 75.1356 7.7875 74.9903 7.34375C74.6778 6.99531 72.5621 6.42656 67.3932 7.54844C66.9512 7.64561 66.4911 7.61964 66.063 7.47334C65.6348 7.32704 65.255 7.06603 64.965 6.71875L64.9087 6.65C64.6391 6.32604 64.4573 5.93823 64.3807 5.52378C64.3041 5.10933 64.3353 4.68216 64.4713 4.28324C64.6073 3.88433 64.8436 3.52706 65.1574 3.24571C65.4712 2.96436 65.8521 2.76838 66.2634 2.67657C67.4903 2.39859 68.7305 2.18321 69.9792 2.03125C74.7794 1.47969 77.9217 2.425 79.3202 4.84375C79.8264 5.71563 80.3124 7.20157 79.7452 9.3125C78.9061 12.4469 75.9153 16.25 71.6824 20.2344C70.3339 21.5047 68.8604 22.7922 67.2885 24.0844C66.1447 25.0219 64.9446 25.9687 63.7102 26.9094C62.8862 27.5344 62.0451 28.1594 61.1867 28.7844C60.3283 29.4094 59.4585 30.0229 58.5772 30.625C54.6068 33.3766 50.4113 36.0187 46.2971 38.3891C44.8033 39.2495 43.3116 40.0828 41.8219 40.8891C40.3323 41.6953 38.8546 42.4667 37.389 43.2031C33.967 44.9219 30.6153 46.4719 27.4105 47.8015C26.0365 48.3724 24.6922 48.9016 23.3775 49.389C21.5196 50.0797 19.7258 50.6875 18.0164 51.2L17.8445 51.2515C13.8241 52.4484 10.4349 53.0781 7.76915 53.1265H7.49727C4.1159 53.1265 1.8252 52.1297 0.687653 50.1578C-0.732712 47.7172 0.0501251 44.4828 3.00961 40.5484Z" fill="#3ADFF0"/>
</g>
<defs>
<filter id="filter0_i" x="0" y="0" width="80" height="59" filterUnits="userSpaceOnUse" color-interpolation-filters="sRGB">
<feFlood flood-opacity="0" result="BackgroundImageFix"/>
<feBlend mode="normal" in="SourceGraphic" in2="BackgroundImageFix" result="shape"/>
<feColorMatrix in="SourceAlpha" type="matrix" values="0 0 0 0 0 0 0 0 0 0 0 0 0 0 0 0 0 0 127 0" result="hardAlpha"/>
<feOffset dy="4"/>
<feGaussianBlur stdDeviation="2"/>
<feComposite in2="hardAlpha" operator="arithmetic" k2="-1" k3="1"/>
<feColorMatrix type="matrix" values="0 0 0 0 0 0 0 0 0 0 0 0 0 0 0 0 0 0 0.15 0"/>
<feBlend mode="normal" in2="shape" result="effect1_innerShadow"/>
</filter>
</defs>
</svg>
