<svg width="76" height="55" viewBox="0 0 76 55" fill="none" xmlns="http://www.w3.org/2000/svg">
<g filter="url(#filter0_i)">
<path d="M62.1818 24.0625C62.1818 10.7594 51.3691 0 38 0C32.7053 0.00262189 27.5583 1.73679 23.3512 4.93557C19.144 8.13434 16.1101 12.6204 14.7164 17.7031C10.5343 18.6598 6.8019 20.9994 4.12891 24.3398C1.45591 27.6801 0.000343321 31.8238 0 36.0938C0 46.5438 8.49818 55 19 55H60.4545C69.0564 54.9656 76 48.0219 76 39.4625C76 31.4531 69.9545 24.9562 62.1818 24.0625ZM29.8473 42.2469L22.5236 34.9594C22.2038 34.6411 21.9501 34.2633 21.777 33.8475C21.6039 33.4317 21.5148 32.986 21.5148 32.5359C21.5148 31.627 21.8777 30.7552 22.5236 30.1125C23.1696 29.4698 24.0456 29.1087 24.9591 29.1087C25.8726 29.1087 26.7486 29.4698 27.3945 30.1125L32.2655 34.9594L44.4945 22.7906C44.8144 22.4724 45.1941 22.2199 45.6119 22.0477C46.0298 21.8755 46.4777 21.7868 46.93 21.7868C47.3823 21.7868 47.8302 21.8755 48.2481 22.0477C48.6659 22.2199 49.0456 22.4724 49.3655 22.7906C49.6853 23.1089 49.939 23.4867 50.1121 23.9025C50.2852 24.3183 50.3743 24.764 50.3743 25.2141C50.3743 25.6641 50.2852 26.1098 50.1121 26.5256C49.939 26.9414 49.6853 27.3193 49.3655 27.6375L34.7182 42.2125C33.3709 43.5875 31.1945 43.5875 29.8473 42.2469Z" fill="#3ADFF0"/>
</g>
<defs>
<filter id="filter0_i" x="0" y="0" width="76" height="59" filterUnits="userSpaceOnUse" color-interpolation-filters="sRGB">
<feFlood flood-opacity="0" result="BackgroundImageFix"/>
<feBlend mode="normal" in="SourceGraphic" in2="BackgroundImageFix" result="shape"/>
<feColorMatrix in="SourceAlpha" type="matrix" values="0 0 0 0 0 0 0 0 0 0 0 0 0 0 0 0 0 0 127 0" result="hardAlpha"/>
<feOffset dy="4"/>
<feGaussianBlur stdDeviation="2"/>
<feComposite in2="hardAlpha" operator="arithmetic" k2="-1" k3="1"/>
<feColorMatrix type="matrix" values="0 0 0 0 0 0 0 0 0 0 0 0 0 0 0 0 0 0 0.15 0"/>
<feBlend mode="normal" in2="shape" result="effect1_innerShadow"/>
</filter>
</defs>
</svg>
