<svg width="557" height="874" viewBox="0 0 557 874" fill="none" xmlns="http://www.w3.org/2000/svg">
<g opacity="0.2">
<path d="M794.5 310.95C847.268 360.386 850.111 441.641 800.915 492.439C751.718 543.237 669.061 544.393 616.293 494.958C563.524 445.523 560.681 364.267 609.878 313.469C659.074 262.671 741.731 261.515 794.5 310.95Z" stroke="white" stroke-width="2"/>
<path d="M798.672 338.006C846.831 391.622 842.465 472.586 788.977 518.847C735.488 565.108 653.084 559.189 604.926 505.573C556.767 451.957 561.133 370.993 614.622 324.732C668.11 278.471 750.514 284.389 798.672 338.006Z" stroke="white" stroke-width="2"/>
<path d="M800.454 365.249C843.653 422.624 832.136 502.68 774.774 544.067C717.413 585.454 635.888 572.528 592.69 515.154C549.491 457.779 561.008 377.723 618.37 336.336C675.731 294.949 757.256 307.875 800.454 365.249Z" stroke="white" stroke-width="2"/>
<path d="M799.839 392.476C837.767 453.159 819.21 531.702 758.423 567.915C697.637 604.128 617.607 584.316 579.68 523.633C541.753 462.95 560.31 384.407 621.096 348.195C681.882 311.982 761.912 331.793 799.839 392.476Z" stroke="white" stroke-width="2"/>
<path d="M796.839 419.48C829.226 482.998 803.794 559.435 740.055 590.214C676.316 620.994 598.385 594.47 565.998 530.952C533.611 467.434 559.044 390.997 622.783 360.217C686.522 329.438 764.452 355.962 796.839 419.48Z" stroke="white" stroke-width="2"/>
<path d="M791.483 446.059C818.103 511.919 786.012 585.676 719.814 610.804C653.616 635.932 578.369 602.919 551.749 537.059C525.129 471.2 557.221 397.443 623.419 372.315C689.617 347.187 764.864 380.199 791.483 446.059Z" stroke="white" stroke-width="2"/>
<path d="M783.82 472.015C804.491 539.707 766.006 610.231 697.86 629.534C629.714 648.837 557.715 609.608 537.043 541.916C516.372 474.223 554.857 403.699 623.003 384.396C691.149 365.093 763.148 404.322 783.82 472.015Z" stroke="white" stroke-width="2"/>
<path d="M773.913 497.153C788.5 566.158 743.936 632.923 674.366 646.272C604.797 659.621 536.58 614.495 521.993 545.49C507.406 476.486 551.97 409.72 621.539 396.372C691.109 383.023 759.326 428.149 773.913 497.153Z" stroke="white" stroke-width="2"/>
<path d="M761.845 521.289C770.259 591.076 719.975 653.588 649.516 660.899C579.056 668.21 515.128 617.55 506.714 547.763C498.301 477.976 548.584 415.464 619.044 408.153C689.503 400.842 753.432 451.502 761.845 521.289Z" stroke="white" stroke-width="2"/>
<path d="M747.714 544.243C749.913 614.28 694.311 672.076 623.5 673.313C552.69 674.549 493.521 618.758 491.323 548.721C489.124 478.684 544.727 420.888 615.537 419.652C686.347 418.415 745.516 474.207 747.714 544.243Z" stroke="white" stroke-width="2"/>
<path d="M731.634 565.847C727.623 635.601 667.143 688.257 596.521 683.428C525.9 678.6 471.925 618.119 475.936 548.365C479.946 478.611 540.427 425.956 611.048 430.784C681.67 435.613 735.645 496.094 731.634 565.847Z" stroke="white" stroke-width="2"/>
<path d="M713.733 585.943C703.565 654.886 638.682 702.016 568.787 691.179C498.892 680.341 450.502 615.646 460.67 546.704C470.837 477.761 535.72 430.63 605.615 441.468C675.51 452.306 723.9 517.001 713.733 585.943Z" stroke="white" stroke-width="2"/>
<path d="M694.15 604.385C677.924 671.995 609.148 713.261 540.509 696.515C471.871 679.769 429.414 611.366 445.639 543.756C461.865 476.146 530.641 434.88 599.28 451.626C667.919 468.372 710.376 536.775 694.15 604.385Z" stroke="white" stroke-width="2"/>
<path d="M673.041 621.04C650.902 686.809 578.769 721.915 511.905 699.407C445.041 676.9 408.819 605.32 430.958 539.551C453.097 473.782 525.231 438.677 592.094 461.184C658.958 483.691 695.18 555.271 673.041 621.04Z" stroke="white" stroke-width="2"/>
<path d="M650.57 635.789C622.707 699.225 547.776 727.923 483.191 699.843C418.606 671.764 388.872 597.563 416.735 534.128C444.599 470.692 519.529 441.994 584.115 470.073C648.7 498.152 678.434 572.354 650.57 635.789Z" stroke="white" stroke-width="2"/>
<path d="M626.912 648.528C593.556 709.157 516.409 731.249 454.586 697.83C392.764 664.411 369.722 588.161 403.078 527.532C436.434 466.903 513.582 444.811 575.404 478.23C637.227 511.649 660.269 587.9 626.912 648.528Z" stroke="white" stroke-width="2"/>
<path d="M602.25 659.169C563.674 716.54 484.904 731.881 426.306 693.394C367.708 654.907 351.51 577.192 390.086 519.821C428.663 462.45 507.432 447.11 566.03 485.597C624.628 524.084 640.827 601.798 602.25 659.169Z" stroke="white" stroke-width="2"/>
<path d="M576.774 667.64C533.288 721.329 453.502 729.823 398.564 686.577C343.626 643.332 334.37 564.748 377.856 511.059C421.342 457.37 501.128 448.876 556.066 492.122C611.004 535.367 620.26 613.951 576.774 667.64Z" stroke="white" stroke-width="2"/>
<path d="M550.679 673.886C502.631 723.498 422.44 725.103 371.568 677.444C320.696 629.785 318.429 550.931 366.477 501.319C414.525 451.707 494.715 450.102 545.588 497.761C596.46 545.42 598.727 624.274 550.679 673.886Z" stroke="white" stroke-width="2"/>
<path d="M524.165 677.868C471.936 723.04 391.953 717.767 345.521 666.072C299.089 614.378 303.803 535.852 356.033 490.68C408.262 445.508 488.245 450.781 534.677 502.475C581.109 554.17 576.395 632.695 524.165 677.868Z" stroke="white" stroke-width="2"/>
<path d="M497.436 679.565C441.436 719.969 362.27 707.882 320.616 652.558C278.962 597.234 290.598 519.632 346.598 479.227C402.598 438.823 481.763 450.911 523.418 506.234C565.072 561.558 553.436 639.16 497.436 679.565Z" stroke="white" stroke-width="2"/>
<path d="M470.693 678.974C411.361 714.32 333.613 695.532 297.038 637.013C260.463 578.493 278.909 502.399 338.24 467.053C397.572 431.707 475.32 450.495 511.895 509.014C548.47 567.534 530.024 643.628 470.693 678.974Z" stroke="white" stroke-width="2"/>
<path d="M444.139 676.11C381.938 706.146 306.196 680.825 274.961 619.565C243.726 558.305 268.818 484.292 331.019 454.255C393.22 424.219 468.962 449.54 500.197 510.8C531.433 572.059 506.34 646.073 444.139 676.11Z" stroke="white" stroke-width="2"/>
<path d="M417.976 671.002C353.389 695.519 280.223 663.879 254.547 600.354C228.871 536.83 260.397 465.45 324.985 440.934C389.572 416.417 462.737 448.057 488.414 511.581C514.09 575.106 482.563 646.485 417.976 671.002Z" stroke="white" stroke-width="2"/>
<path d="M392.4 663.701C325.925 682.53 255.885 644.835 235.945 579.536C216.005 514.237 253.703 446.024 320.178 427.194C386.652 408.365 456.692 446.06 476.633 511.359C496.573 576.658 458.874 644.871 392.4 663.701Z" stroke="white" stroke-width="2"/>
<path d="M367.602 654.27C299.753 667.288 233.362 623.846 219.289 557.275C205.216 490.703 248.781 426.163 316.63 413.145C384.479 400.126 450.871 443.568 464.943 510.14C479.016 576.711 435.451 641.251 367.602 654.27Z" stroke="white" stroke-width="2"/>
<path d="M343.768 642.79C275.065 649.919 212.816 601.081 204.698 533.747C196.58 466.414 245.66 406.024 314.363 398.895C383.066 391.766 445.315 440.604 453.433 507.938C461.551 575.271 412.471 635.661 343.768 642.79Z" stroke="white" stroke-width="2"/>
<path d="M321.074 629.357C252.044 630.563 194.397 576.72 192.275 509.138C190.154 441.557 244.359 385.76 313.389 384.555C382.42 383.349 440.067 437.192 442.189 504.774C444.31 572.355 390.105 628.152 321.074 629.357Z" stroke="white" stroke-width="2"/>
<path d="M299.69 614.082C230.858 609.376 178.237 550.956 182.107 483.641C185.978 416.326 244.879 365.531 313.711 370.237C382.543 374.943 435.165 433.363 431.294 500.678C427.423 567.994 368.522 618.788 299.69 614.082Z" stroke="white" stroke-width="2"/>
<path d="M279.772 597.09C211.662 586.529 164.45 523.993 174.263 457.454C184.076 390.915 247.211 345.49 315.321 356.052C383.431 366.613 430.644 429.148 420.83 495.687C411.017 562.226 347.882 607.651 279.772 597.09Z" stroke="white" stroke-width="2"/>
<path d="M261.466 578.516C194.594 562.201 153.131 496.041 168.792 430.781C184.454 365.521 251.329 325.793 318.201 342.107C385.073 358.422 426.536 424.582 410.874 489.842C395.213 555.102 328.337 594.83 261.466 578.516Z" stroke="white" stroke-width="2"/>
<path d="M244.904 558.509C179.775 536.586 144.357 467.319 165.728 403.829C187.1 340.339 257.196 306.589 322.324 328.512C387.453 350.436 422.872 419.703 401.5 483.193C380.128 546.683 310.033 580.432 244.904 558.509Z" stroke="white" stroke-width="2"/>
<path d="M230.206 537.228C167.31 509.884 138.184 438.048 165.085 376.804C191.985 315.56 264.759 288.025 327.655 315.37C390.551 342.715 419.677 414.551 392.776 475.795C365.875 537.038 293.102 564.573 230.206 537.228Z" stroke="white" stroke-width="2"/>
<path d="M217.476 514.841C157.284 482.303 134.65 408.455 166.857 349.915C199.064 291.375 273.953 270.243 334.146 302.781C394.339 335.319 416.972 409.167 384.765 467.707C352.558 526.247 277.669 547.379 217.476 514.841Z" stroke="white" stroke-width="2"/>
<path d="M206.805 491.523C149.764 454.059 133.772 378.767 171.024 323.367C208.276 267.966 284.705 253.376 341.746 290.84C398.787 328.305 414.779 403.596 377.527 458.997C340.275 514.398 263.846 528.988 206.805 491.523Z" stroke="white" stroke-width="2"/>
<path d="M198.264 467.457C144.798 425.37 135.545 349.213 177.542 297.362C219.539 245.512 296.923 237.552 350.39 279.639C403.857 321.726 413.109 397.883 371.112 449.733C329.115 501.584 251.731 509.544 198.264 467.457Z" stroke="white" stroke-width="2"/>
<path d="M191.912 442.829C142.413 396.456 139.947 320.018 186.355 272.099C232.763 224.18 310.51 222.888 360.009 269.261C409.508 315.633 411.974 392.072 365.566 439.991C319.158 487.909 241.411 489.201 191.912 442.829Z" stroke="white" stroke-width="2"/>
<path d="M187.788 417.83C142.619 367.542 146.933 291.404 197.385 247.768C247.838 204.133 325.356 209.496 370.526 259.785C415.695 310.073 411.381 386.211 360.928 429.846C310.476 473.482 232.957 468.119 187.788 417.83Z" stroke="white" stroke-width="2"/>
<path d="M185.915 392.654C145.403 338.847 156.44 263.588 210.541 224.554C264.641 185.52 341.343 197.474 381.855 251.281C422.368 305.088 411.33 380.347 357.23 419.381C303.129 458.415 226.427 446.461 185.915 392.654Z" stroke="white" stroke-width="2"/>
<path d="M186.299 367.495C150.735 310.592 168.388 236.781 225.714 202.63C283.039 168.479 358.345 186.911 393.909 243.813C429.474 300.716 411.821 374.527 354.495 408.678C297.17 442.829 221.864 424.398 186.299 367.495Z" stroke="white" stroke-width="2"/>
<path d="M188.93 342.544C158.564 282.99 182.675 211.184 242.78 182.16C302.884 153.136 376.226 177.882 406.592 237.436C436.957 296.99 412.846 368.796 352.741 397.82C292.637 426.844 219.295 402.098 188.93 342.544Z" stroke="white" stroke-width="2"/>
<path d="M193.777 317.992C168.822 256.25 199.185 186.989 261.603 163.296C324.02 139.603 394.848 170.453 419.804 232.195C444.759 293.938 414.396 363.199 351.978 386.892C289.561 410.585 218.733 379.735 193.777 317.992Z" stroke="white" stroke-width="2"/>
<path d="M200.798 294.028C181.422 230.575 217.784 164.376 282.032 146.177C346.281 127.978 414.065 164.677 433.442 228.13C452.818 291.583 416.456 357.782 352.207 375.981C287.959 394.18 220.175 357.481 200.798 294.028Z" stroke="white" stroke-width="2"/>
<path d="M209.93 270.832C196.258 206.157 238.322 143.513 303.906 130.929C369.491 118.345 433.728 160.592 447.399 225.267C461.071 289.942 419.008 352.586 353.423 365.17C287.839 377.754 223.602 335.507 209.93 270.832Z" stroke="white" stroke-width="2"/>
<path d="M221.096 248.579C213.211 183.178 260.636 124.554 327.053 117.662C393.47 110.771 453.684 158.226 461.569 223.626C469.454 289.027 422.029 347.651 355.612 354.543C289.195 361.435 228.981 313.979 221.096 248.579Z" stroke="white" stroke-width="2"/>
<path d="M234.204 227.438C232.144 161.812 284.55 107.639 351.292 106.474C418.033 105.308 473.782 157.592 475.842 223.218C477.902 288.845 425.496 343.018 358.754 344.183C292.012 345.349 236.264 293.065 234.204 227.438Z" stroke="white" stroke-width="2"/>
<path d="M249.146 207.568C252.903 142.214 309.875 92.89 376.432 97.4406C442.989 101.991 493.865 158.689 490.107 224.043C486.349 289.396 429.377 338.72 362.82 334.17C296.263 329.619 245.388 272.921 249.146 207.568Z" stroke="white" stroke-width="2"/>
<path d="M265.802 189.115C275.328 124.529 336.416 80.413 402.282 90.6262C468.148 100.839 513.782 161.504 504.257 226.09C494.732 290.675 433.644 334.792 367.778 324.579C301.912 314.365 256.277 253.701 265.802 189.115Z" stroke="white" stroke-width="2"/>
<path d="M284.04 172.219C299.238 108.889 363.962 70.2983 428.638 86.0773C493.314 101.856 533.38 166.013 518.182 229.343C502.983 292.673 438.259 331.264 373.583 315.485C308.907 299.706 268.841 235.549 284.04 172.219Z" stroke="white" stroke-width="2"/>
<path d="M303.714 157.004C324.449 95.4057 392.304 62.6145 455.301 83.8204C518.299 105.026 552.512 172.175 531.777 233.774C511.042 295.372 443.187 328.163 380.19 306.958C317.192 285.752 282.979 218.602 303.714 157.004Z" stroke="white" stroke-width="2"/>
</g>
</svg>
