<svg width="863" height="1281" viewBox="0 0 863 1281" fill="none" xmlns="http://www.w3.org/2000/svg">
<g opacity="0.1">
<g opacity="0.714286">
<path d="M515.015 770.474L626.501 979.242L407.35 939.021L515.015 770.474Z" stroke="white" stroke-width="2"/>
</g>
<g opacity="0.734694">
<path d="M469.539 750.55L563.554 964.365L345.867 905.776L469.539 750.55Z" stroke="white" stroke-width="2"/>
</g>
<g opacity="0.755102">
<path d="M425.216 726.57L501.163 943.771L286.57 867.349L425.216 726.57Z" stroke="white" stroke-width="2"/>
</g>
<g opacity="0.77551">
<path d="M382.419 698.731L439.843 917.641L229.939 824.051L382.419 698.731Z" stroke="white" stroke-width="2"/>
</g>
<g opacity="0.795918">
<path d="M341.504 667.255L380.095 886.197L176.435 776.229L341.504 667.255Z" stroke="white" stroke-width="2"/>
</g>
<g opacity="0.816327">
<path d="M302.813 632.391L322.406 849.699L126.489 724.264L302.813 632.391Z" stroke="white" stroke-width="2"/>
</g>
<g opacity="0.836735">
<path d="M266.668 594.415L267.244 808.445L80.5031 668.566L266.668 594.415Z" stroke="white" stroke-width="2"/>
</g>
<g opacity="0.857143">
<path d="M233.369 553.623L215.056 762.771L38.8469 609.572L233.369 553.623Z" stroke="white" stroke-width="2"/>
</g>
<g opacity="0.877551">
<path d="M203.193 510.334L166.262 713.04L1.85423 547.743L203.193 510.334Z" stroke="white" stroke-width="2"/>
</g>
<g opacity="0.897959">
<path d="M176.392 464.881L121.253 659.648L-30.1792 483.557L176.392 464.881Z" stroke="white" stroke-width="2"/>
</g>
<g opacity="0.918367">
<path d="M153.189 417.613L80.3899 603.016L-56.9972 417.509L153.189 417.613Z" stroke="white" stroke-width="2"/>
</g>
<g opacity="0.938776">
<path d="M133.779 368.894L43.9974 543.586L-78.3858 350.107L133.779 368.894Z" stroke="white" stroke-width="2"/>
</g>
<g opacity="0.959184">
<path d="M118.327 319.093L12.3654 481.822L-94.1734 281.865L118.327 319.093Z" stroke="white" stroke-width="2"/>
</g>
<g opacity="0.979592">
<path d="M106.966 268.587L-14.2558 418.2L-104.233 213.299L106.966 268.587Z" stroke="white" stroke-width="2"/>
</g>
<path d="M99.9504 217.8L-35.6872 353.303L-108.385 145.132L99.9504 217.8Z" stroke="white" stroke-width="2"/>
</g>
</svg>
